<svg width="1440" height="1024" viewBox="0 0 1440 1024" fill="none" xmlns="http://www.w3.org/2000/svg">
<g clip-path="url(#clip0_5_522)">
<rect width="1440" height="1024" fill="white"/>
<path d="M-463.176 533.97C-433.229 564.224 -386.636 570.451 -349.796 549.123L-219.38 473.621C-197.812 461.134 -172.359 457.151 -148.008 462.452L206.922 539.709C279.577 555.524 343.466 489.332 325.088 417.282L276.095 225.2C267.327 190.823 277.43 154.373 302.644 129.415L424.432 8.86423C457.596 -23.9636 463.648 -75.3653 439.013 -114.998L390.166 -193.581C386.218 -199.934 381.569 -205.823 376.307 -211.139L337.911 -249.929C299.059 -289.181 235.743 -289.504 196.492 -250.651L-462.5 401.647C-499.227 438 -499.529 497.244 -463.176 533.97Z" fill="#CAF0F8" fill-opacity="0.5"/>
<path d="M1816.65 512.724C1786.38 482.796 1739.72 477.074 1703.11 498.8L1573.52 575.709C1552.09 588.428 1526.68 592.687 1502.27 587.65L1146.53 514.24C1073.71 499.212 1010.54 566.092 1029.69 637.939L1080.76 829.479C1089.9 863.76 1080.2 900.317 1055.25 925.547L934.778 1047.41C901.971 1080.59 896.476 1132.06 921.539 1171.42L971.233 1249.47C975.25 1255.78 979.962 1261.62 985.281 1266.88L1024.1 1305.25C1063.37 1344.08 1126.69 1343.72 1165.51 1304.44L1817.41 645.047C1853.74 608.298 1853.4 549.055 1816.65 512.724Z" fill="#CAF0F8" fill-opacity="0.5"/>
<path d="M1138.74 699.153L1145.38 683.589L1145.54 683.218C1146.33 681.317 1145.59 679.13 1143.8 678.128L1131.49 671.202C1131.28 671.089 1131.1 670.96 1130.92 670.821C1129.72 669.819 1129.16 668.186 1129.61 666.659C1132.17 657.62 1132.91 648.184 1131.77 638.866C1131.73 638.481 1131.74 638.095 1131.8 637.732C1132.03 636.345 1133 635.137 1134.35 634.616L1145.38 630.465C1146.83 629.907 1147.81 628.561 1147.97 627.082C1148 626.63 1147.98 626.146 1147.86 625.669L1143.54 608.937C1143.02 606.882 1140.97 605.546 1138.86 605.913L1123.39 608.537C1121.87 608.79 1120.34 608.152 1119.46 606.875C1118.16 605.058 1116.8 603.293 1115.32 601.575C1112.56 598.353 1109.57 595.457 1106.39 592.874L1106.38 592.859C1105.06 591.78 1104.53 590.033 1105.07 588.414L1110.05 573.279L1110.29 572.516C1110.94 570.578 1109.99 568.417 1108.07 567.606L1092.17 560.809C1090.23 559.994 1087.97 560.746 1086.94 562.589L1079.23 576.296C1078.38 577.823 1076.64 578.63 1074.95 578.289C1067.77 576.964 1060.41 576.737 1053.16 577.665C1051.31 577.882 1049.56 576.825 1048.89 575.07L1043.95 561.998C1043.19 560.009 1041.08 558.941 1039.05 559.469L1022.25 563.796C1020.27 564.314 1019.01 566.266 1019.36 568.266L1022.41 586.455C1022.68 587.996 1022.04 589.552 1020.77 590.477C1019.21 591.607 1017.68 592.815 1016.2 594.096C1013.39 596.51 1010.82 599.087 1008.5 601.795C1007.46 603.036 1005.77 603.535 1004.23 603.006L986.056 597.002C984.046 596.353 981.899 597.329 981.074 599.252L974.246 615.213C973.535 616.905 974.07 618.879 975.49 619.98C975.637 620.09 975.798 620.215 975.978 620.299L991.178 628.862C992.594 629.651 993.415 631.188 993.239 632.796C993.228 632.935 993.217 633.078 993.181 633.218C993.093 633.636 993.005 634.029 992.957 634.466C992.018 639.394 991.621 644.437 991.754 649.476C991.827 651.157 990.77 652.698 989.167 653.285L975.365 658.522C973.406 659.256 972.324 661.374 972.852 663.404L973.806 667.125L977.17 680.106C977.684 682.146 979.687 683.434 981.771 683.097L997.004 680.513C998.629 680.223 1000.23 681.012 1001.06 682.44C1003.22 686.183 1005.79 689.813 1008.73 693.233C1010.9 695.769 1013.26 698.136 1015.71 700.28L1014.66 703.454L1010.38 716.483C1009.83 718.09 1010.39 719.852 1011.7 720.843C1011.96 721.063 1012.27 721.228 1012.6 721.364L1028.59 728.241C1030.49 729.038 1032.68 728.267 1033.69 726.495L1038.94 717.118C1039.83 715.536 1041.73 714.729 1043.48 715.202C1050.74 717.173 1058.25 717.98 1065.7 717.591C1067.47 717.496 1069.07 718.527 1069.64 720.145L1075.9 736.671C1076.61 738.514 1078.58 739.545 1080.5 739.05L1097.48 734.649C1099.49 734.132 1100.76 732.168 1100.4 730.154L1097.21 711.231C1096.92 709.605 1097.67 707.983 1099.09 707.11C1102.11 705.249 1105.01 703.098 1107.81 700.694C1109.31 699.403 1110.75 698.059 1112.11 696.672C1113.19 695.589 1114.78 695.197 1116.24 695.663L1133.67 701.41C1135.71 702.078 1137.88 701.105 1138.74 699.153ZM1093.43 626.138C1101.28 637.655 1102.24 650.687 1097.92 660.684C1082.72 695.703 1035.59 692.569 1024.9 656.475C1022.28 647.201 1023.4 636.862 1030.08 626.792C1045.75 603.472 1078.4 604.137 1093.43 626.138Z" fill="#FFB27D"/>
<path d="M922.411 911.958L937.662 885.798L938.021 885.174C939.859 881.978 939.023 877.93 936.077 875.753L915.752 860.721C915.414 860.472 915.106 860.204 914.831 859.914C912.92 857.87 912.289 854.845 913.441 852.236C919.989 836.752 923.398 820.168 923.438 803.366C923.449 802.669 923.559 801.994 923.742 801.359C924.465 798.944 926.457 797.021 928.963 796.39L949.479 791.468C952.175 790.8 954.215 788.628 954.82 786.033C954.982 785.237 955.051 784.374 954.945 783.497L950.994 752.827C950.517 749.058 947.186 746.235 943.348 746.415L915.308 747.637C912.545 747.751 909.974 746.272 908.69 743.813C906.789 740.297 904.771 736.862 902.533 733.49C898.336 727.155 893.67 721.349 888.614 716.057L888.596 716.028C886.483 713.815 885.947 710.603 887.253 707.844L899.452 682.077L900.05 680.774C901.649 677.478 900.424 673.43 897.21 671.562L870.483 655.957C867.218 654.082 863.043 654.915 860.798 657.95L844.064 680.575C842.208 683.097 838.947 684.143 836.019 683.159C823.556 679.21 810.55 677.17 797.464 677.21C794.136 677.181 791.257 674.92 790.471 671.654L784.587 647.344C783.681 643.644 780.181 641.277 776.46 641.765L745.672 645.714C742.033 646.191 739.373 649.377 739.542 653.006L740.932 685.978C741.064 688.771 739.579 691.391 737.128 692.76C734.101 694.422 731.126 696.224 728.198 698.166C722.673 701.832 717.544 705.836 712.826 710.126C710.694 712.101 707.591 712.607 704.982 711.33L674.04 696.632C670.617 695.032 666.589 696.287 664.692 699.52L649.023 726.344C647.387 729.192 647.893 732.814 650.175 735.086C650.413 735.314 650.67 735.574 650.967 735.765L676.054 754.346C678.395 756.06 679.51 758.978 678.839 761.789C678.787 762.038 678.74 762.284 678.637 762.523C678.387 763.25 678.145 763.925 677.966 764.688C675.203 773.232 673.38 782.095 672.495 791.068C672.25 794.07 670.037 796.57 667.055 797.259L641.388 803.487C637.749 804.354 635.357 807.877 635.841 811.595L636.707 818.417L639.8 842.213C640.258 845.953 643.531 848.684 647.306 848.544L674.928 847.34C677.881 847.19 680.548 848.944 681.704 851.664C684.709 858.791 688.458 865.808 692.912 872.528C696.218 877.515 699.864 882.238 703.739 886.591L701.17 891.993L690.681 914.178C689.353 916.909 689.962 920.16 692.054 922.216C692.479 922.663 692.974 923.023 693.532 923.342L720.406 939.105C723.601 940.944 727.659 940.059 729.853 937.142L741.259 921.661C743.185 919.052 746.725 918.036 749.734 919.265C762.193 924.377 775.345 927.482 788.67 928.447C791.829 928.675 794.437 930.859 795.098 933.861L802.527 964.59C803.382 968.021 806.647 970.285 810.176 969.838L841.291 965.797C844.978 965.331 847.671 962.123 847.48 958.464L846.024 924.161C845.873 921.206 847.557 918.498 850.265 917.261C856.047 914.63 861.678 911.455 867.174 907.807C870.131 905.847 872.978 903.785 875.715 901.623C877.865 899.939 880.778 899.597 883.261 900.746L912.931 914.828C916.376 916.476 920.455 915.235 922.411 911.958ZM858.174 772.252C861.994 779.699 864.676 788.154 865.945 797.593C866.238 799.594 866.323 801.858 866.304 804.236C866.092 814.486 863.01 826.895 858.479 834.587C823.721 893.384 740.727 877.343 729.779 810.886C729.614 809.793 729.445 808.699 729.31 807.583C727.974 797.201 731.261 781.214 736.482 772.16C739.226 767.415 742.29 763.147 745.566 759.337C778.559 721.412 836.386 729.845 858.174 772.252Z" fill="#739AF0"/>
<path d="M564.836 982.015C564.836 982.015 564.025 975.699 562.147 971.944C560.268 968.19 548.323 970.579 548.323 970.579C548.323 970.579 545.935 972.627 545.421 982.187L564.836 982.015Z" fill="#233862"/>
<path d="M605.534 981.93C602.727 980.216 604.323 967.43 604.323 967.43C604.323 967.43 617.402 956.963 619.2 964.978C620.997 972.994 631.626 976.59 637.676 977.57C641.851 978.249 643.146 980.561 643.546 981.93H605.534Z" fill="#233862"/>
<path d="M578.444 888.94C578.976 891.876 579.313 894.28 579.405 896.008C580.619 919.731 599.37 973.977 602.724 975.243C607.911 977.203 616.081 973.038 620.359 971.676C622.131 971.111 623.327 969.324 622.931 967.511C613.645 924.814 610.233 863.33 608.993 826.931C608.366 808.596 605.222 795.931 605.222 795.931C605.222 795.931 559.495 783.728 559.223 799.164C558.977 812.824 574.364 866.402 578.444 888.94Z" fill="#213F7A"/>
<path d="M578.443 888.94L608.989 826.931C608.362 808.596 605.218 795.931 605.218 795.931C605.218 795.931 559.491 783.728 559.219 799.164C558.977 812.824 574.364 866.402 578.443 888.94Z" fill="#233862"/>
<path d="M588.617 799.219L564.444 974.473C564.444 974.473 553.83 977.034 545.572 974.987C545.572 974.987 538.494 881.78 539.085 859.242C539.676 836.708 534.008 798.944 540.38 794.782C546.753 790.617 588.617 799.219 588.617 799.219Z" fill="#213F7A"/>
<path d="M535.669 796.298C535.552 797.883 536.565 799.322 538.091 799.766C541.462 800.746 545.351 801.425 552.846 802.981C559.887 804.445 569.363 805.741 581.004 805.811C599.52 805.928 606.531 799.546 606.531 799.546C607.327 799.561 606.109 795.685 605.012 777.251C604.642 771.008 604.282 763.092 604.022 753.091C603.787 744.092 603.629 733.398 603.615 720.714C603.596 705.454 579.984 689.039 579.548 689.039L579.544 689.046C579.544 691.244 576.081 695.296 570.75 695.648C564.421 696.063 556.658 692.91 556.658 689.266C556.658 689.229 545.219 707.572 541.158 727.118C540.641 729.596 540.241 732.209 539.925 734.961C538.96 743.244 539.892 737.332 535.669 796.298Z" fill="#F99746"/>
<path d="M579.548 689.039C579.548 689.039 601.502 688.851 606.788 696.265C612.071 703.678 623.657 743.556 617.611 756.827C611.565 770.098 600.254 751.337 593.973 743.211C587.696 735.079 579.548 689.039 579.548 689.039Z" fill="#F99746"/>
<path d="M579.775 685.684L579.764 687.956C579.764 687.956 580.381 695.057 571.642 696.092C562.903 697.131 556.394 694.786 556.633 689.306C557.422 685.064 558.17 680.686 558.229 677.177C558.251 675.874 558.163 674.487 557.917 672.927L574.852 672.59L579.841 673.404L579.775 685.684Z" fill="#FFB27D"/>
<path d="M579.838 673.404L579.772 685.684C577.974 686.521 575.942 687.031 573.667 687.031C565.882 687.031 560.852 681.32 558.222 677.177C558.244 675.874 558.155 674.487 557.91 672.927L574.845 672.59L579.838 673.404Z" fill="#E2915A"/>
<path d="M556.615 670.2C558.581 680.781 572.225 680.432 578.121 679.768C579.779 679.585 580.825 679.372 580.825 679.372C582.696 678.873 583.741 675.922 584.226 672.061C585.187 664.416 583.972 653.197 582.681 650.331C580.737 646.011 577.079 641.343 563.339 644.712C549.596 648.081 554.094 656.647 556.615 670.2Z" fill="#FFB27D"/>
<path d="M602 718.754C602 718.754 610.49 737.512 610.244 743.138C610.244 743.138 606.04 742.995 602 744.199C595.364 746.177 602 718.754 602 718.754Z" fill="#ED7D2B"/>
<path d="M586.9 640.257C586.9 640.257 580.85 639.791 573.718 636.69C567.929 634.172 560.621 636.947 558.251 638.194C558.313 637.813 558.467 637.291 558.83 636.767C558.83 636.767 557.767 637.523 557.609 638.576C557.499 638.657 557.451 638.712 557.477 638.73C557.477 638.73 556.27 638.51 555.496 638.859C555.496 638.859 556.039 638.782 556.233 639.13C556.255 639.167 556.284 639.2 556.321 639.226C547.289 643.593 546.456 657.873 549.361 661.176C552.858 665.151 558.038 673.995 558.038 673.995C558.038 673.995 558.581 671.988 557.946 668.49C557.312 664.993 560.331 664.993 564.147 663.4C567.962 661.811 564.781 657.359 568.12 654.654C571.458 651.95 583.697 653.542 583.539 651.472C588.078 649.825 586.9 640.723 586.9 640.257Z" fill="#233862"/>
<path d="M553.848 753.895C557.433 768.296 596.2 775.735 605.013 777.247C604.642 771.004 604.282 763.088 604.022 753.087L553.848 753.895Z" fill="#ED7D2B"/>
<path d="M562.36 758.578C561.989 758.578 553.742 757.344 552.263 756.607C550.785 755.869 544.031 746.261 548.455 743.799C552.88 741.336 564.759 751.186 564.759 751.186L562.36 758.578Z" fill="#FFB27D"/>
<path d="M612.526 761.429C612.526 761.429 580.623 763.162 559.216 758.574C559.216 758.574 558.677 752.386 565.405 749.638C565.405 749.638 598.772 742.562 606.789 744.533C614.805 746.507 612.526 761.429 612.526 761.429Z" fill="#F99746"/>
<path d="M539.265 736.385C545.887 744.371 554.542 750.889 564.08 752.419L564.084 752.416C564.161 752.295 566.971 748.03 566.447 741.758C566.205 738.855 565.243 735.523 562.972 731.974C562.272 730.884 561.652 729.607 561.098 728.19C555.888 714.89 556.662 689.262 556.662 689.262C556.662 689.262 534.536 691.582 527.642 701.432C523.416 707.466 528.802 723.76 539.265 736.385Z" fill="#F99746"/>
<path d="M578.124 679.768C579.782 679.585 580.828 679.372 580.828 679.372C582.699 678.873 583.745 675.922 584.229 672.061C580.722 672.927 579.111 675.639 578.443 676.792C578.139 677.313 578.077 678.476 578.124 679.768Z" fill="#E2915A"/>
<path d="M587.04 685.75C587.04 685.75 594.682 673.136 588.738 672.586C582.795 672.035 580.407 676.061 579.552 677.537C578.693 679.016 579.776 685.68 579.776 685.68L587.04 685.75Z" fill="#FFB27D"/>
<path d="M557.913 741.336C558.148 742.936 558.625 744.404 559.216 745.714C561.083 749.858 564.08 752.419 564.08 752.419L564.084 752.416C583.928 743.454 587.945 712.684 588.617 695.777C588.888 688.98 588.617 684.425 588.617 684.425C579.665 681.46 577.148 686.613 577.148 686.613C577.148 686.613 566.579 711.759 561.094 728.194C558.995 734.48 557.645 739.494 557.913 741.336Z" fill="#F99746"/>
<path d="M539.265 736.385C545.887 744.371 554.542 750.889 564.081 752.419L564.084 752.416C583.928 743.454 587.946 712.684 588.617 695.777C588.617 695.777 579.225 729.849 566.443 741.758C564.132 743.912 561.711 745.344 559.216 745.714C559.216 745.714 543.099 741.156 539.716 736.866C539.478 736.558 539.328 736.407 539.265 736.385Z" fill="#ED7D2B"/>
<path d="M1366.46 920.916C1366.46 920.916 1356.75 909.587 1365.86 902.394C1365.86 902.394 1372.51 898.364 1377.94 898.691C1377.94 898.691 1370.25 911.584 1372.74 912.868C1375.23 914.149 1380.27 897.883 1380.27 897.883C1380.27 897.883 1395.4 896.415 1400.28 898.757C1400.28 898.757 1387.33 909.352 1390.06 909.983C1392.79 910.615 1406.76 900.214 1406.76 900.214C1406.76 900.214 1420.85 902.614 1420.1 911.209C1419.35 919.804 1414.5 922.461 1412.36 922.234C1410.23 922.006 1397.75 917.239 1397.47 918.99C1397.2 920.74 1404.72 926.454 1409.98 926.722C1409.98 926.722 1400.04 937.681 1393.44 934.517C1386.84 931.354 1386.28 926.341 1382.16 924.462C1378.04 922.582 1374.53 922.586 1376.23 924.502C1377.93 926.421 1385.38 928.282 1387.73 932.447C1390.09 936.613 1392.2 939.42 1385.37 938.393C1378.54 937.365 1367.43 932.363 1366.95 926.638C1366.46 920.916 1366.46 920.916 1366.46 920.916Z" fill="#C8DBF4"/>
<path d="M1413.18 911.44C1413.18 911.44 1374.91 909.965 1366.46 920.913C1366.46 920.913 1364.59 926.513 1358.84 931.611L1357.94 934.055C1357.94 934.055 1364.58 927.06 1366.95 926.638C1366.94 926.642 1363.23 913.077 1413.18 911.44Z" fill="#C8DBF4"/>
<path d="M1358.83 931.614C1358.83 931.614 1350.62 937.692 1350.05 948.548L1351.54 948.68C1351.54 948.68 1354.16 937.453 1358.9 933.064C1363.65 928.675 1358.83 931.614 1358.83 931.614Z" fill="#C8DBF4"/>
<path d="M1332.52 906.669C1332.52 906.669 1347.96 898.019 1340.76 886.283C1340.76 886.283 1334.99 879.075 1328.82 877.221C1328.82 877.221 1332.11 894.727 1328.82 895.138C1325.52 895.549 1326.55 875.368 1326.55 875.368C1326.55 875.368 1310.29 867.544 1303.91 868.16C1303.91 868.16 1314 885.251 1310.7 884.84C1307.41 884.429 1296.09 867.129 1296.09 867.129C1296.09 867.129 1279.41 864.039 1276.73 873.926C1274.06 883.809 1278.38 888.753 1280.85 889.369C1283.32 889.986 1299.17 889.78 1298.76 891.839C1298.35 893.898 1287.65 897.194 1281.68 895.34C1281.68 895.34 1288.27 911.609 1296.91 910.787C1305.56 909.961 1308.23 904.611 1313.58 904.196C1318.94 903.785 1322.85 905.227 1320.17 906.666C1317.5 908.108 1308.44 907.139 1304.11 910.813C1299.79 914.49 1296.29 916.755 1304.32 918.403C1312.35 920.05 1326.76 919.019 1329.64 912.842C1332.53 906.666 1332.52 906.669 1332.52 906.669Z" fill="#C8DBF4"/>
<path d="M1284.35 877.016C1284.35 877.016 1327.58 891.021 1332.52 906.669C1332.52 906.669 1332.32 913.672 1336.64 921.702V924.792C1336.64 924.792 1332.11 914.288 1329.64 912.846C1329.64 912.846 1339.31 899.256 1284.35 877.016Z" fill="#C8DBF4"/>
<path d="M1336.64 921.702C1336.64 921.702 1343.3 931.831 1339.5 944.159L1337.79 943.7C1337.79 943.7 1339.45 930.121 1335.96 923.291C1332.48 916.461 1336.64 921.702 1336.64 921.702Z" fill="#C8DBF4"/>
<path d="M1357.08 894.742C1357.08 894.742 1336.73 883.339 1346.23 867.867C1346.23 867.867 1353.83 858.365 1361.97 855.921C1361.97 855.921 1357.63 878.994 1361.97 879.537C1366.31 880.08 1364.95 853.476 1364.95 853.476C1364.95 853.476 1386.39 843.16 1394.81 843.975C1394.81 843.975 1381.51 866.505 1385.85 865.962C1390.19 865.419 1405.12 842.617 1405.12 842.617C1405.12 842.617 1427.1 838.547 1430.63 851.575C1434.16 864.604 1428.46 871.122 1425.2 871.937C1421.95 872.751 1401.05 872.48 1401.59 875.196C1402.14 877.911 1416.25 882.253 1424.12 879.812C1424.12 879.812 1415.43 901.256 1404.03 900.174C1392.63 899.087 1389.11 892.03 1382.05 891.487C1375 890.943 1369.84 892.845 1373.37 894.746C1376.9 896.647 1388.84 895.37 1394.54 900.214C1400.24 905.062 1404.85 908.046 1394.27 910.218C1383.68 912.391 1364.69 911.033 1360.89 902.889C1357.08 894.742 1357.08 894.742 1357.08 894.742Z" fill="#D4E4F8"/>
<path d="M1420.59 855.649C1420.59 855.649 1363.6 874.109 1357.09 894.738C1357.09 894.738 1357.36 903.968 1351.66 914.556V918.63C1351.66 918.63 1357.63 904.787 1360.89 902.886C1360.88 902.886 1348.13 884.969 1420.59 855.649Z" fill="#D4E4F8"/>
<path d="M1351.66 914.556C1351.66 914.556 1342.87 927.908 1347.88 944.159L1350.14 943.549C1350.14 943.549 1347.95 925.651 1352.54 916.648C1357.14 907.646 1351.66 914.556 1351.66 914.556Z" fill="#D4E4F8"/>
<path d="M1356.4 979.401C1378.42 979.401 1396.27 961.547 1396.27 939.52H1316.53C1316.53 961.543 1334.38 979.401 1356.4 979.401Z" fill="#739AF0"/>
<path d="M1396.82 981.431H1315.98C1315.98 978.715 1318.18 976.51 1320.9 976.51H1391.9C1394.62 976.51 1396.82 978.712 1396.82 981.431Z" fill="#D4E4F8"/>
<path d="M1397.17 939.52H1315.22V940.742H1397.17V939.52Z" fill="#1C468A"/>
<path d="M1217.74 673.569C1211.87 670.523 1207.17 672.439 1207.17 672.439C1189.22 670.329 1183.98 691.277 1184.22 698.485C1184.46 705.693 1185.28 713.433 1177.27 722.799C1154.1 749.847 1202.62 751.039 1202.62 751.039C1203.03 729.43 1228.92 737.314 1227.79 739.505C1260.98 747.472 1231.09 680.495 1217.74 673.569Z" fill="#163560"/>
<path d="M1148.48 763.661C1148.48 763.661 1145.32 758.853 1142.77 758.757C1140.23 758.662 1135.52 757.345 1135.9 758.288C1136.27 759.231 1139.19 759.326 1139.48 759.892C1139.76 760.457 1135.14 761.304 1133.82 761.4C1132.5 761.495 1129.39 761.4 1129.48 762.061C1129.58 762.721 1135.09 765.455 1138.98 765.077C1142.87 764.699 1147.67 766.208 1147.67 766.208L1148.48 763.661Z" fill="#FFB27D"/>
<path d="M1194.14 765.217C1194.14 765.217 1192.43 768.615 1189.32 772.524C1185.56 777.225 1179.78 782.657 1172.51 783.728C1169.04 784.238 1165.65 783.493 1162.53 782.106C1162.52 782.102 1162.52 782.102 1162.52 782.102C1153.7 778.186 1147.06 769.177 1147.06 769.177C1145.51 764.934 1148.05 762.057 1148.05 762.057C1148.05 762.057 1165.87 766.064 1167.56 765.217C1169.26 764.369 1179.16 735.846 1181.51 732.264C1183.87 728.678 1191.9 726.817 1191.9 726.817L1194.14 765.217Z" fill="#F9DDBF"/>
<path d="M1189.32 772.524C1185.56 777.225 1179.78 782.657 1172.51 783.728C1169.04 784.238 1165.65 783.493 1162.53 782.106C1162.88 782.15 1171.69 783.24 1175.2 776.953C1178.78 770.542 1182.65 760.358 1187.98 763.752C1190.27 765.22 1190.17 768.861 1189.32 772.524Z" fill="#F2CCAA"/>
<path d="M1260.61 957.58C1260.61 957.58 1266.04 962.542 1264.98 966.068C1263.92 969.595 1259.02 971.944 1258.35 976.256C1257.69 980.565 1255.04 982.917 1252.65 982.917C1250.27 982.917 1241.28 982.917 1241.28 982.917C1241.28 982.917 1239.52 979.886 1243.76 978.972C1248.01 978.058 1249.6 972.994 1249.34 968.292C1249.08 963.591 1249.74 957.323 1249.74 957.323L1258.75 955.235L1260.61 957.58Z" fill="#233862"/>
<path d="M1214.6 959.69C1214.6 959.69 1216.55 980.712 1214.17 981.89L1183.63 981.827C1183.63 981.827 1183.63 978.3 1188.53 977.519C1193.44 976.737 1202.05 973.863 1203.51 967.463C1204.97 961.059 1214.6 959.69 1214.6 959.69Z" fill="#233862"/>
<path d="M1236.36 808.868C1230.08 794.768 1226.23 790.72 1226.97 786.345C1227.51 783.086 1225.3 725.617 1225.3 725.617C1224.56 725.386 1223.06 725.181 1222.25 724.997C1219.67 724.425 1217.54 722.612 1216.65 720.127C1215.58 717.129 1214.73 712.706 1214.75 707.161L1213.94 707.319L1200.41 710.001C1200.41 710.001 1200.71 714.262 1200.72 718.277C1200.72 718.31 1200.72 718.343 1200.72 718.376C1200.74 721.863 1198.45 724.942 1195.1 725.907C1193.39 726.403 1191.9 726.825 1191.9 726.825C1191.9 726.825 1186.93 741.02 1185.98 755.605C1185.03 770.19 1195.02 776.524 1185.9 805.667C1176.6 835.427 1239.83 816.655 1236.36 808.868Z" fill="#FFB27D"/>
<path d="M1200.4 709.998C1200.4 709.998 1200.71 714.259 1200.72 718.274C1208.29 718.061 1212.3 711.147 1213.94 707.315L1200.4 709.998Z" fill="#E8945B"/>
<path d="M1197.87 713.796C1197.87 713.796 1215.79 714.094 1215.81 702.926C1215.82 691.758 1218.14 684.275 1206.7 683.614C1195.26 682.954 1193.03 687.211 1192.12 690.94C1191.21 694.665 1193.21 713.433 1197.87 713.796Z" fill="#FFB27D"/>
<path d="M1198.54 683.339C1198.54 683.339 1203.44 696.441 1210.97 698.379C1218.5 700.316 1221.77 698.298 1221.77 698.298C1221.77 698.298 1215.99 693.707 1214.8 685.695C1214.8 685.695 1202.24 677.104 1198.54 683.339Z" fill="#163560"/>
<path d="M1199.75 684.403C1199.75 684.403 1196.11 685.765 1194.62 688.418C1193.15 691.013 1191.91 694.452 1192.2 698.672C1192.2 698.672 1188.5 689.765 1192.65 684.73C1197.06 679.386 1199.75 684.403 1199.75 684.403Z" fill="#163560"/>
<path d="M1201.77 706.871C1201.77 706.871 1200.53 708.5 1198.06 708.383C1196.07 708.288 1195.3 706.559 1195.3 706.559C1195.3 706.559 1198.96 705.675 1201.77 706.871Z" fill="#EBF3FA"/>
<path d="M1238.09 751.039C1238.09 751.039 1238.55 757.458 1238.09 765.162C1237.79 770.267 1232.63 777.107 1231.9 778.799C1230.06 783.042 1227.98 783.732 1227.98 783.732L1211.95 787.662L1206.31 789.042L1188.53 783.732C1188.53 783.732 1180.43 761.121 1183.68 748.39C1186.94 735.662 1191.91 726.821 1191.91 726.821C1191.91 726.821 1206.42 741.031 1225.31 725.617L1238.09 751.039Z" fill="#F9DDBF"/>
<path d="M1233.4 767.243C1233.1 772.347 1232.63 777.104 1231.9 778.796C1230.06 783.038 1227.98 783.728 1227.98 783.728L1211.95 787.659L1204.98 785.611C1204.98 785.611 1228.23 782.088 1225.66 762.075L1233.4 767.243Z" fill="#F2CCAA"/>
<path d="M1189.66 787.16C1189.66 787.16 1180.86 814.578 1180.29 823.911C1179.73 833.244 1197.12 956.515 1197.82 960.817C1198.48 964.872 1203.52 967.456 1203.52 967.456C1203.52 967.456 1205.83 968.821 1209.13 967.889C1213.72 966.593 1215.17 965.044 1215.17 965.044C1215.17 965.044 1222.02 877.13 1217.78 845.722C1213.54 814.314 1213.49 787.16 1213.49 787.16H1189.66Z" fill="#ED7D2B"/>
<path d="M1226.96 786.345C1226.96 786.345 1240.4 804.372 1241.65 816.56C1242.9 828.748 1243.61 871.555 1246.28 883.435C1248.94 895.314 1258.75 918.179 1258.75 955.235C1258.75 955.235 1257.73 957.359 1254.58 958.49C1253.58 958.853 1252.23 959.202 1250.92 959.503C1248.33 960.097 1245.66 958.831 1244.48 956.446C1237.86 943.098 1216.75 900.052 1215.66 891.12C1214.9 884.796 1208.24 842.947 1193.7 818.388C1190.21 812.494 1195.84 789.046 1195.84 789.046L1226.96 786.345Z" fill="#F99746"/>
<path d="M1201.37 707.168C1201.37 707.168 1201.07 708.486 1197.79 708.28C1197.79 708.28 1195.04 708.111 1195.13 706.665C1195.13 706.665 1197.79 705.638 1201.37 707.168Z" fill="white"/>
<path d="M1188.25 782.928C1188.25 782.928 1191.79 785.725 1198.81 785.868C1207.2 786.037 1227.98 783.728 1227.98 783.728C1227.98 783.728 1228.91 786.308 1228.87 789.035C1228.87 789.035 1203.49 795.439 1188.78 789.971C1188.78 789.971 1186.88 786.4 1188.25 782.928Z" fill="#233862"/>
<path d="M1196.8 793.098C1194.69 793.098 1192.97 791.153 1192.97 788.763C1192.97 786.374 1194.69 784.429 1196.8 784.429C1198.91 784.429 1200.62 786.374 1200.62 788.763C1200.62 791.153 1198.91 793.098 1196.8 793.098ZM1196.8 785.699C1195.38 785.699 1194.24 787.075 1194.24 788.763C1194.24 790.452 1195.39 791.828 1196.8 791.828C1198.21 791.828 1199.35 790.452 1199.35 788.763C1199.35 787.075 1198.21 785.699 1196.8 785.699Z" fill="white"/>
<path d="M1224.35 752.276L1198.34 774.931L1229.34 810.546L1255.35 787.891L1224.35 752.276Z" fill="#B5453C"/>
<path d="M1222.12 787.971C1222.12 787.971 1212.59 789.086 1212.62 791.347C1212.65 793.608 1214.99 798.258 1216.17 798.463C1217.35 798.669 1223.93 792.176 1223.93 792.176L1222.12 787.971Z" fill="#FFB27D"/>
<path d="M1225.3 725.614C1225.3 725.614 1238.03 726.505 1242.9 738.367C1247.78 750.228 1257.03 770.138 1257.03 773.489C1257.03 776.84 1251.86 787.163 1224.1 793.101C1224.1 793.101 1221.23 790.081 1221.41 787.692C1221.41 787.692 1238.73 772.803 1238.69 771.063C1238.6 767.771 1235.85 763.426 1220.63 748.203C1216.5 744.059 1225.3 725.614 1225.3 725.614Z" fill="#F9DDBF"/>
<path d="M1326.85 654.61L1334.44 681.137C1334.55 681.526 1334.59 681.922 1334.57 682.308C1334.47 683.702 1333.52 684.954 1332.1 685.361L1286.05 698.544C1284.62 698.951 1283.14 698.386 1282.33 697.241C1282.11 696.933 1281.94 696.584 1281.83 696.199L1274.25 669.683C1273.73 667.87 1274.78 665.98 1276.58 665.462L1322.64 652.28C1324.44 651.762 1326.33 652.801 1326.85 654.61Z" fill="#CDE0FB"/>
<path d="M1334.57 682.308C1334.47 683.702 1333.52 684.954 1332.1 685.361L1286.05 698.544C1284.62 698.951 1283.14 698.386 1282.33 697.241L1305.79 675.863L1334.57 682.308Z" fill="#BED7FB"/>
<path d="M1326.85 654.61L1306.24 680.22L1274.63 671.037L1274.24 669.679C1273.72 667.866 1274.77 665.976 1276.58 665.459L1322.63 652.276C1324.44 651.762 1326.33 652.801 1326.85 654.61Z" fill="#DFEBFD"/>
<path d="M961.666 982.187H961.534C960.76 982.187 960.14 981.549 960.155 980.778L962.246 890.191L968.402 889.472L963.156 980.785C963.108 981.571 962.455 982.187 961.666 982.187Z" fill="#B0D4FF"/>
<path d="M925.804 982.187H925.672C924.898 982.187 924.278 981.549 924.293 980.778L926.384 890.191L932.54 889.472L927.29 980.785C927.242 981.571 926.593 982.187 925.804 982.187Z" fill="#95C0F4"/>
<path d="M1024.77 982.187H1024.9C1025.68 982.187 1026.3 981.549 1026.28 980.778L1024.19 890.191L1018.03 889.472L1023.28 980.785C1023.33 981.571 1023.98 982.187 1024.77 982.187Z" fill="#B0D4FF"/>
<path d="M921.725 884.569V822.494C921.725 811.573 930.577 802.717 941.495 802.717H986.203C997.121 802.717 1005.97 811.573 1005.97 822.494V886.943L921.725 884.569Z" fill="#B0D4FF"/>
<path d="M1013.99 894.371H927.665C924.385 894.371 921.729 891.714 921.729 888.433V884.573H1013.99V894.371Z" fill="#95C0F4"/>
<path d="M1024.33 894.371H959.021C956.596 894.371 954.633 892.404 954.633 889.982V888.965C954.633 886.54 956.6 884.576 959.021 884.576H1024.33C1026.75 884.576 1028.72 886.543 1028.72 888.965V889.982C1028.72 892.404 1026.75 894.371 1024.33 894.371Z" fill="#B0D4FF"/>
<path d="M1021.79 869.103C1015.39 880.253 1007.33 884.558 1007.33 884.558H973.817C973.821 884.558 1026.68 860.596 1021.79 869.103Z" fill="#233862"/>
<path d="M996.054 955.381C995.181 956.383 995.071 957.503 995.5 958.695C995.5 958.699 995.504 958.706 995.507 958.71C996.307 960.92 998.949 963.386 1002.02 965.852C1002.41 966.168 1002.76 966.458 1003.06 966.722C1003.14 966.791 1003.22 966.861 1003.3 966.931C1003.36 966.986 1003.42 967.041 1003.48 967.092C1006.34 969.731 1005.26 970.333 1010.4 975.688C1016.26 981.787 1020.29 981.897 1021.44 981.339C1022.41 980.866 1020.44 977.633 1018.25 973.996C1018.15 973.82 1018.04 973.643 1017.93 973.467C1017.64 972.983 1017.35 972.495 1017.06 972.007C1014.5 967.632 1015.16 965.577 1015.77 959.066C1016.26 953.774 1024 929.504 1024 929.504L1012.77 927.57C1012.77 927.57 1009.39 946.896 1005.66 949.873C1003.67 951.458 1001.44 951.48 999.525 952.655C999.389 952.735 999.257 952.82 999.125 952.908C998.039 953.631 996.931 954.376 996.054 955.381Z" fill="#FFB27D"/>
<path d="M996.054 955.381C995.181 956.383 995.071 957.503 995.5 958.695C995.5 958.699 995.504 958.706 995.507 958.71C996.487 960.916 999.059 963.371 1002.03 965.83C1002.42 966.153 1002.76 966.447 1003.06 966.722C1003.14 966.791 1003.22 966.861 1003.3 966.931C1003.36 966.986 1003.42 967.041 1003.48 967.092C1006.34 969.731 1005.26 970.333 1010.4 975.688C1016.26 981.787 1020.29 981.897 1021.44 981.339C1022.41 980.866 1020.44 977.633 1018.25 973.996C1017.11 973.577 1011.81 971.423 1007.81 966.296C1004.28 961.793 1001.93 956.005 999.525 952.655C999.389 952.735 999.257 952.82 999.125 952.908C998.039 953.631 996.931 954.376 996.054 955.381Z" fill="#233862"/>
<path d="M1086.6 948.364C1087.3 951.833 1092.24 951.253 1097.76 949.906C1103.28 948.555 1101.96 950.159 1109.82 949.289C1117.67 948.419 1120.05 945.491 1120.29 944.32C1120.51 943.281 1116.62 942.918 1112.46 942.437C1111.94 942.379 1111.41 942.313 1110.89 942.25C1106.19 941.659 1102.74 938.624 1098.47 936.132C1094.43 933.773 1088.39 924.153 1088.39 924.153L1077.61 925.009C1077.61 925.009 1083.27 933.6 1085.45 937.332C1086.74 939.531 1086.67 942.434 1086.51 944.676C1086.43 945.898 1086.36 947.142 1086.6 948.364Z" fill="#FFB27D"/>
<path d="M1097.76 949.906C1103.28 948.555 1101.96 950.159 1109.82 949.289C1117.67 948.419 1120.05 945.491 1120.29 944.32C1120.51 943.282 1116.62 942.918 1112.46 942.437L1112.42 942.518C1112.42 942.518 1107.71 945.862 1101.17 946.016C1095.84 946.144 1090.19 944.617 1086.51 944.676C1086.43 945.895 1086.35 947.142 1086.6 948.364C1087.3 951.833 1092.23 951.253 1097.76 949.906Z" fill="#233862"/>
<path d="M1045.31 879.449L1035.24 906.56L1022.09 941.96C1022.09 941.96 1018.52 942.305 1015.11 941.322C1011.96 940.412 1008.35 938.033 1008.35 938.033C1008.35 938.033 1012 900.023 1018.81 878.205C1020.56 872.605 1022.51 868.076 1024.67 865.525C1035.23 853.04 1045.31 879.449 1045.31 879.449Z" fill="#233862"/>
<path d="M1035.07 836.393C1028.47 834.264 1009.65 836.998 990.749 840.698L986.79 834.165L945.957 830.976C945.957 830.976 932.482 860.868 939.859 879.915C940.945 882.715 943.099 884.51 946.771 884.569C946.771 884.569 947.366 884.569 947.369 884.569C947.369 884.569 971.675 884.554 979.566 884.554C999.873 884.554 1022.54 870.59 1025.48 870.003C1030.28 869.041 1032.2 878.645 1037 888.731C1041.8 898.816 1082.12 933.387 1082.12 933.387C1082.12 933.387 1088.32 933.45 1090.88 932.488C1093.63 931.457 1094.64 930.114 1094.64 930.114C1094.64 930.114 1049.95 841.193 1035.07 836.393Z" fill="#2B478B"/>
<path d="M985.184 715.224C979.952 712.475 971.994 712.104 970.699 711.932C955.225 709.851 945.913 732.345 945.367 739.16C944.358 751.722 937.714 753.638 928.362 761.503C909.615 777.276 915.11 795.608 925.365 802.42C931.517 806.504 942.358 802.42 942.358 802.42C942.512 802.526 972.009 785.923 986.552 777.915C1008.35 774.814 998.512 722.226 985.184 715.224Z" fill="#233862"/>
<path d="M974.36 771.096C974.423 771.137 967.206 773.603 962.378 771.463C957.836 769.456 954.399 761.983 954.465 761.98C956.53 761.884 958.798 760.079 960.544 748.225L961.424 748.54L976.213 753.862C976.213 753.862 975.142 758.607 974.448 763.129C973.869 766.923 973.553 770.56 974.36 771.096Z" fill="#FFB27D"/>
<path d="M976.217 753.865C976.217 753.865 975.146 758.611 974.452 763.132C965.959 761.602 962.624 753.135 961.428 748.544L976.217 753.865Z" fill="#ED975D"/>
<path d="M978.418 758.574C978.418 758.574 958.185 755.858 960.071 743.277C961.957 730.7 960.614 721.878 973.612 723.078C986.611 724.282 988.397 729.456 988.786 733.809C989.175 738.161 983.731 758.959 978.418 758.574Z" fill="#FFB27D"/>
<path d="M988.048 726.917C988.048 726.917 975.098 738.081 966.285 738.984C957.477 739.883 954.138 737.053 954.138 737.053C954.138 737.053 959.333 732.741 962.455 725.779C963.376 723.727 965.321 722.318 967.562 722.127C973.858 721.584 985.781 721.335 988.048 726.917Z" fill="#233862"/>
<path d="M979.952 725.915C979.952 725.915 984.284 730.106 985.649 733.214C986.966 736.213 987.363 743.388 986.313 746.239C986.313 746.239 993.064 733.108 989.241 726.726C985.191 719.962 979.952 725.915 979.952 725.915Z" fill="#233862"/>
<path d="M991.398 800.915C990.786 841.887 991.23 833.325 986.75 837.215C985.671 838.151 982.634 838.709 978.642 838.973C966.084 839.806 944.006 837.736 943.165 835.417C940.267 827.383 942.314 824.887 939.897 812.589C939.643 811.283 939.332 809.866 938.968 808.325C936.954 799.876 934.991 797.003 942.142 783.431C948.624 771.137 955.36 761.161 955.966 761.521C973.069 771.68 974.449 763.14 974.449 763.14C974.449 763.14 991.699 780.928 991.398 800.915Z" fill="white"/>
<path d="M1035.24 906.56L1022.09 941.96C1022.09 941.96 1018.52 942.305 1015.11 941.322C1011.96 940.412 1008.35 938.034 1008.35 938.034C1008.35 938.034 1012 900.023 1018.81 878.205L1035.24 906.56Z" fill="#2B478B"/>
<path d="M974.452 763.132C974.452 763.132 992.055 766.116 994.12 773.698C996.186 781.28 1008.35 825.845 1008.35 825.845C1008.35 825.845 999.403 827.453 995.269 823.316C991.134 819.18 980.887 784.954 980.887 784.954L974.452 763.132Z" fill="white"/>
<path d="M978.642 838.969C966.084 839.802 944.006 837.732 943.165 835.413C940.267 827.379 942.314 824.884 939.896 812.585L945.954 795.524C945.954 795.524 944.952 814.523 950.554 819.522C956.149 824.52 973.488 829.17 976.213 833.347C977.527 835.347 978.393 837.354 978.642 838.969Z" fill="#EBF3FF"/>
<path d="M964.253 830.979C964.253 830.979 976.642 828.22 978.642 829.321C980.641 830.422 985.528 834.426 986.141 835.82C986.753 837.215 981.691 834.763 980.043 834.319C978.976 834.033 976.169 835.009 974.779 835.472C968.931 837.42 965.346 836.418 965.346 836.418L964.253 830.979Z" fill="#FFB27D"/>
<path d="M955.954 761.503C955.954 761.503 939.317 762.527 933.557 770.564C925.449 781.875 909.365 830.084 918.584 836.51C928.963 843.751 965.827 838.404 965.827 838.404C965.827 838.404 967.052 832.668 965.346 829.893C963.64 827.119 935.905 822.638 934.624 821.357C933.344 820.076 950.627 796.386 950.627 792.544C950.627 788.701 955.954 761.503 955.954 761.503Z" fill="white"/>
<path d="M979.244 832.767C979.244 832.767 981.841 836.117 982.692 836.518C983.543 836.918 984.094 836.818 984.094 836.818L982.344 833.67L979.244 832.767Z" fill="#FFB27D"/>
<path d="M978.642 829.317L986.189 832.983C986.189 832.983 985.866 833.508 984.938 833.468C984.009 833.424 981.665 832.569 981.665 832.569L978.642 829.317Z" fill="#FFB27D"/>
<path d="M982.688 841.648H1042.4L1060.36 796.97H1000.74L982.688 841.648Z" fill="#F99746"/>
<path d="M1043.1 839.909H964.253V841.648H1042.4L1043.1 839.909Z" fill="#ED7D2B"/>
<path d="M1027.33 819.309C1027.78 817.738 1026.87 816.465 1025.3 816.465C1023.73 816.465 1022.09 817.738 1021.64 819.309C1021.19 820.88 1022.1 822.153 1023.67 822.153C1025.24 822.153 1026.87 820.88 1027.33 819.309Z" fill="white"/>
<path d="M706.553 892.246H706.362C704.142 892.246 702.345 890.448 702.345 888.228V803.377C702.345 801.157 704.142 799.359 706.362 799.359H706.553C708.772 799.359 710.57 801.157 710.57 803.377V888.228C710.574 890.444 708.772 892.246 706.553 892.246Z" fill="#B0D4FF"/>
<path d="M706.424 982.187H706.292C705.518 982.187 704.898 981.548 704.913 980.778L707.004 890.191L713.16 889.472L707.91 980.785C707.866 981.57 707.213 982.187 706.424 982.187Z" fill="#95C0F4"/>
<path d="M805.389 982.187H805.521C806.295 982.187 806.915 981.548 806.9 980.778L804.809 890.191L798.653 889.472L803.903 980.785C803.947 981.57 804.6 982.187 805.389 982.187Z" fill="#B0D4FF"/>
<path d="M804.949 884.569H794.603H739.641H702.345V888.43C702.345 891.711 705.001 894.368 708.281 894.368H739.641H794.603H804.949C807.374 894.368 809.336 892.4 809.336 889.978V888.962C809.34 886.536 807.374 884.569 804.949 884.569Z" fill="#B0D4FF"/>
<path d="M856.315 962.82C856.315 962.82 854.804 981.603 858.164 981.853C858.612 981.886 875.216 981.886 875.216 981.886L896.414 981.765C896.414 981.765 896.275 976.656 890.079 975.574C883.882 974.495 871.617 969.276 867.864 961.085C863.92 952.467 856.315 962.82 856.315 962.82Z" fill="#163560"/>
<path d="M728.789 859.921C728.789 859.921 729.493 878.381 732.748 884.569H807.719C807.719 884.569 825.732 886.433 827.376 887.648C829.448 889.182 820.159 904.39 854.976 963.833L872.028 963.4C872.028 963.4 854.194 867 851.028 864.56C846.288 860.912 790.824 848.206 781.329 847.931C771.834 847.652 728.789 859.921 728.789 859.921Z" fill="#1C468A"/>
<path d="M770.822 750.544C776.608 754.13 776.934 761.268 776.934 761.268C762.824 764.919 742.29 749.248 742.29 749.248C742.29 749.248 751.374 743.145 754.738 729.728C754.907 729.052 755.065 728.355 755.2 727.647C755.641 725.386 755.916 722.942 755.963 720.303L762.446 726.113L773.225 735.772C773.225 735.772 772.979 739.78 771.633 746.676C771.398 747.88 771.13 749.171 770.822 750.544Z" fill="#FFB27D"/>
<path d="M778.794 824.649C778.314 827.797 779.29 830.333 779.756 832.675C779.939 833.57 780.045 834.436 779.968 835.299C779.198 844.011 782.302 845.116 781.329 847.927C781.329 847.927 778.013 849.869 771.937 852.17C769.296 853.168 766.13 854.24 762.487 855.245C762.296 855.297 762.105 855.348 761.911 855.403C747.804 859.216 732.975 860.031 728.786 859.921C720.784 859.708 719.166 839.413 722.138 813.855C726.764 774.039 733.016 754.735 749.496 740.785C750.534 739.908 749.833 742.896 755.373 745.567C760.491 748.03 766.665 748.61 771.457 747.546L775.225 751.41C782.709 763.238 783.494 777.276 782.859 788.98C782.056 803.777 780.185 815.584 778.794 824.649Z" fill="#B0D4FF"/>
<path d="M773.225 735.772C773.225 735.772 773.798 735.167 772.451 742.063C760.513 738.605 756.624 732.524 755.028 728.487C754.573 727.346 759.467 726.74 762.446 726.109L773.225 735.772Z" fill="#ED975D"/>
<path d="M778.776 735.805C778.776 735.805 755.74 739.105 753.905 724.722C752.071 710.339 747.863 701.08 762.494 698.364C777.125 695.648 780.687 700.771 782.467 705.425C784.246 710.079 784.719 734.576 778.776 735.805Z" fill="#FFB27D"/>
<path d="M865.458 842.419L867.22 842.97L881.648 796.823L879.887 796.272L865.458 842.419Z" fill="#1C468A"/>
<path d="M816.544 842.439L867.263 842.967L867.294 839.932L816.575 839.404L816.544 842.439Z" fill="#1C468A"/>
<path d="M746.56 698.658C746.377 698.441 745.948 698.265 744.99 698.206C744.99 698.206 745.761 697.733 746.784 697.718C746.993 696.389 747.723 694.037 750.016 693.483C750.016 693.483 748.78 694.129 748.608 695.545C751.282 692.841 756.983 690.899 772.719 692.268C793.455 694.07 786.513 707.304 783.813 708.867C781.113 710.431 774.388 706.034 769.38 706.39C764.372 706.746 763.363 713.976 761.657 714.956C759.951 715.936 760.634 714.185 758.345 713.128C756.055 712.071 755.806 715.877 756.451 718.358C757.097 720.839 753.913 724.08 753.913 724.08C753.913 724.08 753.913 724.08 750.75 720.619C747.588 717.158 744.697 702.577 746.172 699.487C746.296 699.212 746.425 698.933 746.56 698.658Z" fill="#2C3A64"/>
<path d="M781.329 847.927C781.329 847.927 778.013 849.869 771.937 852.17C745.654 832.987 745.797 787.578 745.654 786.804L778.666 815.881L779.755 832.671C779.939 833.567 780.045 834.433 779.968 835.295C779.198 844.012 782.301 845.116 781.329 847.927Z" fill="#91B8EF"/>
<path d="M828.913 826.568C828.913 826.568 831.026 826.913 833.257 825.863C835.488 824.817 843.181 821.511 844.626 821.962C846.072 822.414 850.79 825.078 851.901 825.584C853.013 826.091 854.976 828.689 854.976 828.689C854.161 829.511 851.296 827.625 850.016 827.662C848.735 827.698 839.281 832.866 836.471 832.976C833.66 833.09 829.28 832.513 829.28 832.513L828.913 826.568Z" fill="#FFB27D"/>
<path d="M846.054 826.979C846.079 827.133 849.51 830.957 852.125 829.746L849.26 826.913L846.054 826.979Z" fill="#FFB27D"/>
<path d="M833.257 825.863C833.257 825.863 836.335 823.012 837.355 821.643C837.355 821.643 837.968 821.925 837.993 822.443C838.034 823.309 837.186 824.902 837.186 824.902L833.257 825.863Z" fill="#FFB27D"/>
<path d="M772.708 758.112C755.788 747.806 735.819 765.811 744.216 783.761C753.953 804.574 770.158 829.955 783.035 831.456C792.215 832.524 818.446 835.89 829.555 833.816C829.555 833.816 834.937 834.081 832.017 825.412C832.017 825.412 796.118 815.404 790.156 807.642C786.961 803.484 781.517 795.061 773.097 758.357C773.067 758.203 772.84 758.192 772.708 758.112Z" fill="#B0D4FF"/>
<path d="M1227.61 982.187H1227.8C1228.86 982.187 1229.72 981.306 1229.7 980.238L1226.81 855.095L1218.31 854.104L1225.56 980.249C1225.62 981.336 1226.52 982.187 1227.61 982.187Z" fill="#739AF0"/>
<path d="M809.589 982.187H809.409C808.342 982.187 807.483 981.306 807.505 980.238L810.393 855.095L818.893 854.104L811.644 980.249C811.581 981.336 810.682 982.187 809.589 982.187Z" fill="#739AF0"/>
<path d="M1235.02 857.396H801.1C797.941 857.396 795.384 854.834 795.384 851.678V848.016C795.384 844.856 797.945 842.298 801.1 842.298H1235.02C1238.18 842.298 1240.73 844.859 1240.73 848.016V851.678C1240.74 854.834 1238.18 857.396 1235.02 857.396Z" fill="#739AF0"/>
<path d="M1163.54 537.434C1163.54 547.916 1167.25 557.528 1173.43 565.033C1178.77 571.521 1181.74 579.643 1181.74 588.047V600.169C1181.74 607.876 1188.04 614.181 1195.75 614.181H1218.16C1225.87 614.181 1232.17 607.876 1232.17 600.169V588.025C1232.17 579.603 1235.18 571.488 1240.52 564.978C1246.73 557.418 1250.43 547.729 1250.37 537.17C1250.23 513.216 1230.9 494 1206.96 494C1204.3 494 1201.69 494.242 1199.16 494.701C1198.6 494.804 1198.04 494.914 1197.49 495.039C1178.06 499.358 1163.54 516.699 1163.54 537.434Z" fill="#F9DDBF"/>
<path d="M1218.08 614.181L1218.03 614.556L1217.41 619.279L1217.25 620.523V620.534L1217.09 621.786L1216.48 626.505L1216.31 627.749L1216.31 627.76L1216.15 629.016L1216.06 629.706C1215.75 632.102 1213.01 633.93 1209.73 633.93H1202.35C1201.57 633.93 1200.83 633.827 1200.13 633.636H1200.13C1199.51 633.464 1198.93 633.221 1198.41 632.92L1198.37 632.898C1197.96 632.653 1197.58 632.366 1197.26 632.047C1196.6 631.394 1196.16 630.612 1196.04 629.75L1195.78 627.918L1195.61 626.766V626.762L1195.61 626.737V626.733L1195.45 625.606L1194.82 621.228L1194.65 620.079L1194.65 620.053L1194.49 618.919L1193.81 614.178H1218.08V614.181Z" fill="#95C0F4"/>
<path d="M1215.15 614.181H1215.1H1210.98C1204.26 616.127 1197.58 618.05 1194.49 618.923L1194.65 620.057L1194.66 620.083L1194.82 621.232C1197.33 620.538 1203.34 618.817 1218.03 614.556L1218.08 614.181H1215.15Z" fill="#739AF0"/>
<path d="M1195.61 626.737L1195.61 626.762V626.766L1195.78 627.918C1198.67 627.104 1204.65 625.39 1217.09 621.782L1217.25 620.531V620.52L1217.41 619.275C1209.55 621.551 1200.04 624.303 1195.45 625.606L1195.61 626.737Z" fill="#739AF0"/>
<path d="M1198.38 632.899L1198.42 632.921C1198.94 633.221 1199.51 633.464 1200.14 633.636H1200.14C1203.55 632.656 1208.62 631.196 1216.15 629.012L1216.31 627.757L1216.31 627.746L1216.48 626.502C1209.75 628.45 1202.03 630.682 1197.26 632.043C1197.59 632.366 1197.96 632.653 1198.38 632.899Z" fill="#739AF0"/>
<path d="M1190.76 558.484L1188.82 558.811L1198.23 614.379L1200.17 614.051L1190.76 558.484Z" fill="white"/>
<path d="M1222.93 559.296L1212.93 613.987L1214.86 614.34L1224.86 559.65L1222.93 559.296Z" fill="white"/>
<path d="M1212.13 568.696C1211.88 568.696 1211.6 568.663 1211.28 568.593C1210.76 568.472 1210.43 568.108 1210.32 567.539C1210.1 566.314 1211.06 564.06 1212.41 562.152C1211.71 560.919 1210.77 559.899 1209.78 559.601C1208.32 559.157 1206.09 560.504 1204.53 562.225C1204.81 562.629 1205.07 563.051 1205.29 563.473C1206.09 564.981 1206.67 566.908 1205.88 567.8C1205.59 568.13 1205 568.431 1203.82 567.987C1202.35 567.433 1201.82 566.185 1202.37 564.567C1202.63 563.774 1203.13 562.948 1203.76 562.181C1202.55 560.607 1200.94 559.41 1199.35 559.612C1198.51 559.719 1197.78 560.016 1197.17 560.434C1198.19 562.324 1198.42 564.725 1197.72 566.013C1197.24 566.89 1196.4 567.169 1195.35 566.798C1194.61 566.53 1194.21 565.499 1194.36 564.17C1194.5 562.809 1195.18 561.319 1196.39 560.284C1196.08 559.792 1195.7 559.355 1195.26 559.018C1192.53 556.893 1190.26 559.172 1190.17 559.271L1189.74 558.856C1189.77 558.827 1192.48 556.1 1195.63 558.548C1196.11 558.919 1196.52 559.392 1196.87 559.924C1197.54 559.466 1198.34 559.143 1199.28 559.025C1201.06 558.801 1202.84 560.06 1204.16 561.73C1205.85 559.888 1208.27 558.526 1209.95 559.036C1211.01 559.359 1212.02 560.387 1212.79 561.653C1213.5 560.724 1214.3 559.917 1215.07 559.407C1216.31 558.585 1217.12 558.772 1217.58 559.076C1218.05 559.385 1218.45 559.803 1218.78 560.28C1219.15 559.983 1219.54 559.73 1219.93 559.539C1221.37 558.823 1222.69 558.875 1223.65 559.686L1223.26 560.141C1222.23 559.264 1220.9 559.722 1220.2 560.071C1219.81 560.262 1219.44 560.508 1219.09 560.787C1220.05 562.512 1220.23 564.761 1219.69 565.851C1219.34 566.538 1218.72 566.776 1218.01 566.512C1216.71 566.035 1216.39 565.143 1216.35 564.475C1216.29 563.202 1217.17 561.748 1218.32 560.68C1218.02 560.236 1217.66 559.851 1217.25 559.579C1216.69 559.209 1215.93 559.554 1215.4 559.91C1214.62 560.42 1213.82 561.264 1213.1 562.218C1213.99 563.914 1214.45 565.892 1214.12 567.165C1213.96 567.771 1213.48 568.696 1212.13 568.696ZM1212.72 562.732C1211.55 564.449 1210.72 566.391 1210.91 567.429C1210.97 567.76 1211.13 567.943 1211.42 568.009C1212.58 568.273 1213.3 567.932 1213.54 567C1213.83 565.921 1213.46 564.233 1212.72 562.732ZM1204.13 562.691C1203.59 563.37 1203.16 564.086 1202.93 564.758C1202.48 566.086 1202.85 566.985 1204.03 567.429C1204.5 567.609 1205.13 567.749 1205.43 567.407C1205.9 566.879 1205.63 565.374 1204.77 563.752C1204.58 563.392 1204.36 563.036 1204.13 562.691ZM1196.7 560.805C1195.66 561.73 1195.08 563.036 1194.95 564.233C1194.84 565.246 1195.09 566.071 1195.55 566.237C1196.31 566.505 1196.86 566.336 1197.19 565.727C1197.8 564.626 1197.58 562.504 1196.7 560.805ZM1218.63 561.187C1217.6 562.178 1216.89 563.451 1216.95 564.431C1216.99 565.143 1217.41 565.649 1218.21 565.943C1218.65 566.105 1218.95 565.987 1219.16 565.576C1219.62 564.659 1219.42 562.706 1218.63 561.187Z" fill="white"/>
<path d="M698.379 649.245H691.133V675.911H698.379V649.245Z" fill="#F9DDBF"/>
<path d="M697.472 646.606H692.369C691.87 646.606 691.463 646.198 691.463 645.699C691.463 645.2 691.87 644.793 692.369 644.793H697.472C697.971 644.793 698.378 645.2 698.378 645.699C698.378 646.198 697.971 646.606 697.472 646.606Z" fill="#F9DDBF"/>
<path d="M685.883 628.304H678.637V675.911H685.883V628.304Z" fill="#F9DDBF"/>
<path d="M684.815 626.329H679.712C679.213 626.329 678.806 625.922 678.806 625.423C678.806 624.923 679.213 624.516 679.712 624.516H684.815C685.314 624.516 685.721 624.923 685.721 625.423C685.721 625.922 685.31 626.329 684.815 626.329Z" fill="#F9DDBF"/>
<path d="M673.912 595.152H666.666V675.911H673.912V595.152Z" fill="#F9DDBF"/>
<path d="M672.844 592.95H667.741C667.242 592.95 666.834 592.543 666.834 592.044C666.834 591.545 667.242 591.137 667.741 591.137H672.844C673.343 591.137 673.75 591.545 673.75 592.044C673.746 592.543 673.339 592.95 672.844 592.95Z" fill="#F9DDBF"/>
<path d="M661.625 609.807H654.379V675.914H661.625V609.807Z" fill="#F9DDBF"/>
<path d="M660.557 608.038H655.454C654.955 608.038 654.548 607.63 654.548 607.131C654.548 606.632 654.955 606.225 655.454 606.225H660.557C661.056 606.225 661.463 606.632 661.463 607.131C661.46 607.63 661.053 608.038 660.557 608.038Z" fill="#F9DDBF"/>
<path d="M649.654 573.121H642.408V675.914H649.654V573.121Z" fill="#F9DDBF"/>
<path d="M648.583 571.151H643.479C642.98 571.151 642.573 570.743 642.573 570.244C642.573 569.745 642.98 569.338 643.479 569.338H648.583C649.082 569.338 649.489 569.745 649.489 570.244C649.489 570.743 649.082 571.151 648.583 571.151Z" fill="#F9DDBF"/>
<path d="M637.998 589.174H630.752V675.914H637.998V589.174Z" fill="#F9DDBF"/>
<path d="M636.927 587.332H631.824C631.325 587.332 630.917 586.924 630.917 586.425C630.917 585.926 631.325 585.519 631.824 585.519H636.927C637.426 585.519 637.833 585.926 637.833 586.425C637.833 586.921 637.426 587.332 636.927 587.332Z" fill="#F9DDBF"/>
<path d="M1170.57 842.294H1110.86L1092.9 797.615H1152.52L1170.57 842.294Z" fill="#2B478B"/>
<path d="M1110.16 840.554H1189.01V842.294H1110.86L1110.16 840.554Z" fill="#2B478B"/>
<path d="M1125.93 819.955C1125.48 818.384 1126.39 817.111 1127.96 817.111C1129.53 817.111 1131.17 818.384 1131.62 819.955C1132.07 821.526 1131.16 822.799 1129.59 822.799C1128.02 822.799 1126.39 821.526 1125.93 819.955Z" fill="white"/>
<path d="M1490.54 982.216V982.65C1490.54 983.339 1490.01 983.908 1489.37 983.908H460.17C459.528 983.908 459 983.339 459 982.65V982.216C459 981.526 459.528 980.958 460.17 980.958H1489.37C1490.01 980.958 1490.54 981.523 1490.54 982.216Z" fill="#2E3552"/>
</g>
<defs>
<clipPath id="clip0_5_522">
<rect width="1440" height="1024" fill="white"/>
</clipPath>
</defs>
</svg>
