<svg width="1728" height="1117" viewBox="0 0 1728 1117" fill="none" xmlns="http://www.w3.org/2000/svg">
<g clip-path="url(#clip0_15_251)">
<rect width="1728" height="1117" fill="white"/>
<path d="M-427.176 543.97C-397.23 574.224 -350.636 580.451 -313.796 559.123L-183.38 483.621C-161.812 471.134 -136.359 467.151 -112.008 472.452L242.922 549.709C315.577 565.524 379.466 499.332 361.088 427.282L312.095 235.2C303.327 200.823 313.429 164.373 338.644 139.415L460.432 18.8642C493.596 -13.9636 499.647 -65.3653 475.013 -104.998L426.166 -183.581C422.218 -189.934 417.569 -195.823 412.307 -201.139L373.911 -239.929C335.059 -279.181 271.743 -279.504 232.492 -240.651L-426.5 411.647C-463.227 448 -463.53 507.244 -427.176 543.97Z" fill="#CAF0F8" fill-opacity="0.5"/>
<path d="M2118.65 611.724C2088.38 581.796 2041.72 576.074 2005.11 597.8L1875.52 674.709C1854.09 687.428 1828.68 691.687 1804.27 686.65L1448.53 613.24C1375.71 598.212 1312.54 665.092 1331.69 736.939L1382.76 928.479C1391.9 962.76 1382.2 999.317 1357.25 1024.55L1236.78 1146.41C1203.97 1179.59 1198.48 1231.06 1223.54 1270.42L1273.23 1348.47C1277.25 1354.78 1281.96 1360.62 1287.28 1365.88L1326.1 1404.25C1365.37 1443.08 1428.69 1442.72 1467.51 1403.44L2119.41 744.047C2155.74 707.298 2155.4 648.055 2118.65 611.724Z" fill="#CAF0F8" fill-opacity="0.5"/>
<path d="M1372.74 800.153L1379.38 784.589L1379.54 784.218C1380.33 782.317 1379.59 780.13 1377.81 779.128L1365.49 772.202C1365.28 772.089 1365.1 771.96 1364.92 771.821C1363.72 770.819 1363.16 769.186 1363.61 767.659C1366.17 758.62 1366.91 749.184 1365.77 739.866C1365.73 739.481 1365.74 739.095 1365.8 738.732C1366.03 737.345 1367 736.137 1368.35 735.616L1379.38 731.465C1380.83 730.907 1381.81 729.561 1381.97 728.082C1382 727.63 1381.98 727.146 1381.86 726.669L1377.54 709.937C1377.02 707.882 1374.97 706.546 1372.86 706.913L1357.39 709.537C1355.87 709.79 1354.34 709.152 1353.46 707.875C1352.16 706.058 1350.8 704.293 1349.32 702.575C1346.56 699.353 1343.57 696.457 1340.39 693.874L1340.38 693.859C1339.06 692.78 1338.53 691.033 1339.07 689.414L1344.05 674.279L1344.29 673.516C1344.94 671.578 1343.99 669.417 1342.08 668.606L1326.17 661.809C1324.23 660.994 1321.97 661.746 1320.94 663.589L1313.23 677.296C1312.38 678.823 1310.64 679.63 1308.95 679.289C1301.77 677.964 1294.41 677.737 1287.16 678.665C1285.31 678.882 1283.56 677.825 1282.89 676.07L1277.95 662.998C1277.19 661.009 1275.08 659.941 1273.05 660.469L1256.25 664.796C1254.27 665.314 1253.01 667.266 1253.36 669.266L1256.41 687.455C1256.68 688.996 1256.04 690.552 1254.77 691.477C1253.21 692.607 1251.68 693.815 1250.2 695.096C1247.39 697.51 1244.82 700.087 1242.5 702.795C1241.46 704.036 1239.77 704.535 1238.23 704.006L1220.06 698.002C1218.05 697.353 1215.9 698.329 1215.07 700.252L1208.25 716.213C1207.53 717.905 1208.07 719.879 1209.49 720.98C1209.64 721.09 1209.8 721.215 1209.98 721.299L1225.18 729.862C1226.59 730.651 1227.42 732.188 1227.24 733.796C1227.23 733.935 1227.22 734.078 1227.18 734.218C1227.09 734.636 1227 735.029 1226.96 735.466C1226.02 740.394 1225.62 745.437 1225.75 750.476C1225.83 752.157 1224.77 753.698 1223.17 754.285L1209.37 759.522C1207.41 760.256 1206.32 762.374 1206.85 764.404L1207.81 768.125L1211.17 781.106C1211.68 783.146 1213.69 784.434 1215.77 784.097L1231 781.513C1232.63 781.223 1234.23 782.012 1235.06 783.44C1237.22 787.183 1239.79 790.813 1242.73 794.233C1244.9 796.769 1247.26 799.136 1249.71 801.28L1248.66 804.454L1244.38 817.483C1243.83 819.09 1244.39 820.852 1245.7 821.843C1245.96 822.063 1246.27 822.228 1246.6 822.364L1262.59 829.241C1264.49 830.038 1266.68 829.267 1267.69 827.495L1272.94 818.118C1273.83 816.536 1275.73 815.729 1277.48 816.202C1284.74 818.173 1292.25 818.98 1299.7 818.591C1301.47 818.496 1303.07 819.527 1303.65 821.145L1309.9 837.671C1310.61 839.514 1312.58 840.545 1314.5 840.05L1331.48 835.649C1333.49 835.132 1334.76 833.168 1334.4 831.154L1331.21 812.231C1330.92 810.605 1331.67 808.983 1333.09 808.11C1336.11 806.249 1339.01 804.098 1341.81 801.694C1343.31 800.403 1344.75 799.059 1346.11 797.672C1347.19 796.589 1348.78 796.197 1350.24 796.663L1367.67 802.41C1369.71 803.078 1371.88 802.105 1372.74 800.153ZM1327.43 727.138C1335.28 738.655 1336.24 751.687 1331.92 761.684C1316.72 796.703 1269.59 793.569 1258.9 757.475C1256.29 748.201 1257.4 737.862 1264.08 727.792C1279.75 704.472 1312.4 705.137 1327.43 727.138Z" fill="#FFB27D"/>
<path d="M1156.41 1012.96L1171.66 986.798L1172.02 986.174C1173.86 982.978 1173.02 978.93 1170.08 976.753L1149.75 961.721C1149.41 961.472 1149.11 961.204 1148.83 960.914C1146.92 958.87 1146.29 955.845 1147.44 953.236C1153.99 937.752 1157.4 921.168 1157.44 904.366C1157.45 903.669 1157.56 902.994 1157.74 902.359C1158.47 899.944 1160.46 898.021 1162.96 897.39L1183.48 892.468C1186.18 891.8 1188.22 889.628 1188.82 887.033C1188.98 886.237 1189.05 885.374 1188.95 884.497L1184.99 853.827C1184.52 850.058 1181.19 847.235 1177.35 847.415L1149.31 848.637C1146.55 848.751 1143.97 847.272 1142.69 844.813C1140.79 841.297 1138.77 837.862 1136.53 834.49C1132.34 828.155 1127.67 822.349 1122.61 817.057L1122.6 817.028C1120.48 814.815 1119.95 811.603 1121.25 808.844L1133.45 783.077L1134.05 781.774C1135.65 778.478 1134.42 774.43 1131.21 772.562L1104.48 756.957C1101.22 755.082 1097.04 755.915 1094.8 758.95L1078.06 781.575C1076.21 784.097 1072.95 785.143 1070.02 784.159C1057.56 780.21 1044.55 778.17 1031.46 778.21C1028.14 778.181 1025.26 775.92 1024.47 772.654L1018.59 748.344C1017.68 744.644 1014.18 742.277 1010.46 742.765L979.672 746.714C976.033 747.191 973.373 750.377 973.542 754.006L974.932 786.978C975.064 789.771 973.579 792.391 971.128 793.76C968.101 795.422 965.126 797.224 962.198 799.166C956.673 802.832 951.544 806.836 946.826 811.126C944.695 813.101 941.591 813.607 938.982 812.33L908.04 797.632C904.617 796.032 900.589 797.287 898.692 800.52L883.023 827.344C881.387 830.192 881.893 833.814 884.175 836.086C884.413 836.314 884.67 836.574 884.967 836.765L910.054 855.346C912.395 857.06 913.51 859.978 912.839 862.789C912.787 863.038 912.74 863.284 912.637 863.523C912.388 864.25 912.145 864.925 911.966 865.688C909.203 874.232 907.38 883.095 906.496 892.068C906.25 895.07 904.038 897.57 901.055 898.259L875.388 904.487C871.749 905.354 869.357 908.877 869.841 912.595L870.707 919.417L873.8 943.213C874.258 946.953 877.531 949.684 881.306 949.544L908.928 948.34C911.881 948.19 914.548 949.944 915.704 952.664C918.709 959.791 922.458 966.808 926.912 973.528C930.218 978.515 933.864 983.238 937.739 987.591L935.171 992.993L924.682 1015.18C923.353 1017.91 923.962 1021.16 926.054 1023.22C926.479 1023.66 926.975 1024.02 927.532 1024.34L954.406 1040.11C957.601 1041.94 961.659 1041.06 963.853 1038.14L975.259 1022.66C977.185 1020.05 980.725 1019.04 983.734 1020.26C996.193 1025.38 1009.35 1028.48 1022.67 1029.45C1025.83 1029.67 1028.44 1031.86 1029.1 1034.86L1036.53 1065.59C1037.38 1069.02 1040.65 1071.29 1044.18 1070.84L1075.29 1066.8C1078.98 1066.33 1081.67 1063.12 1081.48 1059.46L1080.02 1025.16C1079.87 1022.21 1081.56 1019.5 1084.26 1018.26C1090.05 1015.63 1095.68 1012.46 1101.17 1008.81C1104.13 1006.85 1106.98 1004.78 1109.71 1002.62C1111.86 1000.94 1114.78 1000.6 1117.26 1001.75L1146.93 1015.83C1150.38 1017.48 1154.46 1016.24 1156.41 1012.96ZM1092.17 873.252C1095.99 880.699 1098.68 889.154 1099.95 898.593C1100.24 900.594 1100.32 902.858 1100.3 905.236C1100.09 915.486 1097.01 927.895 1092.48 935.587C1057.72 994.384 974.727 978.343 963.779 911.886C963.614 910.793 963.446 909.699 963.31 908.583C961.974 898.201 965.262 882.214 970.482 873.16C973.226 868.415 976.29 864.147 979.566 860.337C1012.56 822.412 1070.39 830.845 1092.17 873.252Z" fill="#739AF0"/>
<path d="M798.836 1083.01C798.836 1083.01 798.025 1076.7 796.147 1072.94C794.268 1069.19 782.323 1071.58 782.323 1071.58C782.323 1071.58 779.935 1073.63 779.421 1083.19L798.836 1083.01Z" fill="#233862"/>
<path d="M839.534 1082.93C836.727 1081.22 838.323 1068.43 838.323 1068.43C838.323 1068.43 851.402 1057.96 853.2 1065.98C854.997 1073.99 865.626 1077.59 871.675 1078.57C875.851 1079.25 877.146 1081.56 877.545 1082.93H839.534Z" fill="#233862"/>
<path d="M812.443 989.94C812.975 992.876 813.313 995.28 813.405 997.008C814.619 1020.73 833.37 1074.98 836.723 1076.24C841.911 1078.2 850.081 1074.04 854.359 1072.68C856.131 1072.11 857.327 1070.32 856.931 1068.51C847.645 1025.81 844.233 964.33 842.993 927.931C842.366 909.596 839.222 896.931 839.222 896.931C839.222 896.931 793.494 884.728 793.223 900.164C792.977 913.824 808.364 967.402 812.443 989.94Z" fill="#213F7A"/>
<path d="M812.443 989.94L842.989 927.931C842.362 909.596 839.218 896.931 839.218 896.931C839.218 896.931 793.491 884.728 793.219 900.164C792.977 913.824 808.364 967.402 812.443 989.94Z" fill="#233862"/>
<path d="M822.617 900.219L798.444 1075.47C798.444 1075.47 787.83 1078.03 779.572 1075.99C779.572 1075.99 772.494 982.78 773.085 960.242C773.676 937.708 768.008 899.944 774.38 895.782C780.753 891.617 822.617 900.219 822.617 900.219Z" fill="#213F7A"/>
<path d="M769.67 897.298C769.552 898.883 770.565 900.322 772.091 900.766C775.462 901.746 779.351 902.425 786.847 903.981C793.887 905.445 803.363 906.741 815.004 906.811C833.52 906.928 840.531 900.546 840.531 900.546C841.328 900.561 840.11 896.685 839.013 878.251C838.642 872.008 838.283 864.092 838.022 854.091C837.787 845.092 837.629 834.398 837.615 821.714C837.596 806.454 813.984 790.039 813.548 790.039L813.544 790.046C813.544 792.244 810.081 796.296 804.75 796.648C798.422 797.063 790.658 793.91 790.658 790.266C790.658 790.229 779.219 808.572 775.158 828.118C774.641 830.596 774.241 833.209 773.925 835.961C772.96 844.244 773.892 838.332 769.67 897.298Z" fill="#F99746"/>
<path d="M813.548 790.039C813.548 790.039 835.502 789.851 840.788 797.265C846.071 804.678 857.657 844.556 851.611 857.827C845.565 871.098 834.254 852.337 827.973 844.211C821.696 836.079 813.548 790.039 813.548 790.039Z" fill="#F99746"/>
<path d="M813.775 786.684L813.764 788.956C813.764 788.956 814.381 796.057 805.642 797.092C796.903 798.131 790.394 795.786 790.633 790.306C791.421 786.064 792.17 781.686 792.229 778.177C792.251 776.874 792.163 775.487 791.917 773.927L808.852 773.59L813.841 774.404L813.775 786.684Z" fill="#FFB27D"/>
<path d="M813.838 774.404L813.771 786.684C811.974 787.521 809.941 788.031 807.667 788.031C799.882 788.031 794.852 782.32 792.221 778.177C792.243 776.874 792.155 775.487 791.909 773.927L808.844 773.59L813.838 774.404Z" fill="#E2915A"/>
<path d="M790.614 771.2C792.581 781.781 806.225 781.432 812.121 780.768C813.779 780.585 814.824 780.372 814.824 780.372C816.696 779.873 817.741 776.922 818.225 773.061C819.187 765.416 817.972 754.197 816.681 751.331C814.736 747.011 811.079 742.343 797.339 745.712C783.596 749.081 788.094 757.647 790.614 771.2Z" fill="#FFB27D"/>
<path d="M836 819.754C836 819.754 844.49 838.512 844.244 844.138C844.244 844.138 840.04 843.995 836 845.199C829.364 847.177 836 819.754 836 819.754Z" fill="#ED7D2B"/>
<path d="M820.9 741.257C820.9 741.257 814.85 740.791 807.718 737.69C801.929 735.172 794.621 737.947 792.251 739.194C792.313 738.813 792.467 738.291 792.83 737.767C792.83 737.767 791.766 738.523 791.609 739.576C791.499 739.657 791.451 739.712 791.477 739.73C791.477 739.73 790.27 739.51 789.495 739.859C789.495 739.859 790.038 739.782 790.233 740.13C790.255 740.167 790.284 740.2 790.321 740.226C781.288 744.593 780.456 758.873 783.361 762.176C786.858 766.151 792.038 774.995 792.038 774.995C792.038 774.995 792.581 772.988 791.946 769.49C791.312 765.993 794.331 765.993 798.146 764.4C801.962 762.811 798.781 758.359 802.12 755.654C805.458 752.95 817.697 754.542 817.539 752.472C822.078 750.825 820.9 741.723 820.9 741.257Z" fill="#233862"/>
<path d="M787.848 854.895C791.433 869.296 830.2 876.735 839.013 878.247C838.642 872.004 838.282 864.088 838.022 854.087L787.848 854.895Z" fill="#ED7D2B"/>
<path d="M796.36 859.578C795.989 859.578 787.742 858.344 786.263 857.607C784.785 856.869 778.031 847.261 782.455 844.799C786.88 842.336 798.759 852.186 798.759 852.186L796.36 859.578Z" fill="#FFB27D"/>
<path d="M846.526 862.429C846.526 862.429 814.623 864.162 793.215 859.574C793.215 859.574 792.676 853.386 799.405 850.638C799.405 850.638 832.772 843.562 840.788 845.533C848.804 847.507 846.526 862.429 846.526 862.429Z" fill="#F99746"/>
<path d="M773.265 837.385C779.887 845.371 788.542 851.889 798.08 853.419L798.084 853.416C798.161 853.295 800.971 849.03 800.447 842.758C800.204 839.855 799.243 836.523 796.972 832.974C796.272 831.884 795.652 830.607 795.098 829.19C789.888 815.89 790.662 790.262 790.662 790.262C790.662 790.262 768.536 792.582 761.642 802.432C757.416 808.466 762.802 824.76 773.265 837.385Z" fill="#F99746"/>
<path d="M812.124 780.768C813.783 780.585 814.828 780.372 814.828 780.372C816.699 779.873 817.745 776.922 818.229 773.061C814.722 773.927 813.111 776.639 812.444 777.792C812.139 778.313 812.077 779.476 812.124 780.768Z" fill="#E2915A"/>
<path d="M821.039 786.75C821.039 786.75 828.681 774.136 822.738 773.586C816.795 773.035 814.406 777.061 813.551 778.537C812.693 780.016 813.775 786.68 813.775 786.68L821.039 786.75Z" fill="#FFB27D"/>
<path d="M791.913 842.336C792.148 843.936 792.625 845.404 793.216 846.714C795.083 850.858 798.08 853.419 798.08 853.419L798.084 853.416C817.928 844.454 821.945 813.684 822.617 796.777C822.888 789.98 822.617 785.425 822.617 785.425C813.665 782.46 811.148 787.613 811.148 787.613C811.148 787.613 800.579 812.759 795.094 829.194C792.995 835.48 791.645 840.494 791.913 842.336Z" fill="#F99746"/>
<path d="M773.265 837.385C779.887 845.371 788.542 851.889 798.08 853.419L798.084 853.416C817.928 844.454 821.946 813.684 822.617 796.777C822.617 796.777 813.225 830.849 800.443 842.758C798.132 844.912 795.71 846.344 793.216 846.714C793.216 846.714 777.099 842.156 773.716 837.866C773.478 837.558 773.327 837.407 773.265 837.385Z" fill="#ED7D2B"/>
<path d="M1600.46 1021.92C1600.46 1021.92 1590.75 1010.59 1599.86 1003.39C1599.86 1003.39 1606.51 999.364 1611.94 999.691C1611.94 999.691 1604.25 1012.58 1606.74 1013.87C1609.23 1015.15 1614.27 998.883 1614.27 998.883C1614.27 998.883 1629.4 997.415 1634.28 999.757C1634.28 999.757 1621.33 1010.35 1624.06 1010.98C1626.78 1011.61 1640.76 1001.21 1640.76 1001.21C1640.76 1001.21 1654.85 1003.61 1654.1 1012.21C1653.35 1020.8 1648.5 1023.46 1646.36 1023.23C1644.23 1023.01 1631.74 1018.24 1631.47 1019.99C1631.2 1021.74 1638.72 1027.45 1643.98 1027.72C1643.98 1027.72 1634.04 1038.68 1627.44 1035.52C1620.84 1032.35 1620.28 1027.34 1616.16 1025.46C1612.04 1023.58 1608.53 1023.59 1610.23 1025.5C1611.93 1027.42 1619.38 1029.28 1621.73 1033.45C1624.09 1037.61 1626.2 1040.42 1619.37 1039.39C1612.54 1038.37 1601.43 1033.36 1600.95 1027.64C1600.46 1021.92 1600.46 1021.92 1600.46 1021.92Z" fill="#C8DBF4"/>
<path d="M1647.18 1012.44C1647.18 1012.44 1608.91 1010.97 1600.46 1021.91C1600.46 1021.91 1598.59 1027.51 1592.84 1032.61L1591.94 1035.05C1591.94 1035.05 1598.58 1028.06 1600.95 1027.64C1600.94 1027.64 1597.23 1014.08 1647.18 1012.44Z" fill="#C8DBF4"/>
<path d="M1592.83 1032.61C1592.83 1032.61 1584.62 1038.69 1584.05 1049.55L1585.54 1049.68C1585.54 1049.68 1588.16 1038.45 1592.9 1034.06C1597.65 1029.67 1592.83 1032.61 1592.83 1032.61Z" fill="#C8DBF4"/>
<path d="M1566.52 1007.67C1566.52 1007.67 1581.96 999.019 1574.76 987.283C1574.76 987.283 1568.99 980.075 1562.82 978.221C1562.82 978.221 1566.11 995.727 1562.82 996.138C1559.52 996.549 1560.55 976.368 1560.55 976.368C1560.55 976.368 1544.29 968.544 1537.91 969.16C1537.91 969.16 1548 986.251 1544.7 985.84C1541.41 985.429 1530.09 968.129 1530.09 968.129C1530.09 968.129 1513.41 965.039 1510.73 974.926C1508.06 984.809 1512.38 989.753 1514.85 990.369C1517.32 990.986 1533.17 990.78 1532.76 992.839C1532.35 994.898 1521.65 998.194 1515.68 996.34C1515.68 996.34 1522.27 1012.61 1530.91 1011.79C1539.56 1010.96 1542.23 1005.61 1547.58 1005.2C1552.94 1004.78 1556.85 1006.23 1554.17 1007.67C1551.5 1009.11 1542.44 1008.14 1538.11 1011.81C1533.79 1015.49 1530.29 1017.75 1538.32 1019.4C1546.35 1021.05 1560.76 1020.02 1563.64 1013.84C1566.53 1007.67 1566.52 1007.67 1566.52 1007.67Z" fill="#C8DBF4"/>
<path d="M1518.35 978.016C1518.35 978.016 1561.58 992.021 1566.52 1007.67C1566.52 1007.67 1566.32 1014.67 1570.64 1022.7V1025.79C1570.64 1025.79 1566.11 1015.29 1563.64 1013.85C1563.64 1013.85 1573.31 1000.26 1518.35 978.016Z" fill="#C8DBF4"/>
<path d="M1570.64 1022.7C1570.64 1022.7 1577.3 1032.83 1573.5 1045.16L1571.79 1044.7C1571.79 1044.7 1573.45 1031.12 1569.96 1024.29C1566.48 1017.46 1570.64 1022.7 1570.64 1022.7Z" fill="#C8DBF4"/>
<path d="M1591.08 995.742C1591.08 995.742 1570.73 984.339 1580.23 968.867C1580.23 968.867 1587.83 959.365 1595.97 956.921C1595.97 956.921 1591.63 979.994 1595.97 980.537C1600.31 981.08 1598.95 954.476 1598.95 954.476C1598.95 954.476 1620.39 944.16 1628.81 944.975C1628.81 944.975 1615.51 967.505 1619.85 966.962C1624.19 966.419 1639.12 943.617 1639.12 943.617C1639.12 943.617 1661.1 939.547 1664.63 952.575C1668.16 965.604 1662.46 972.122 1659.2 972.937C1655.95 973.751 1635.05 973.48 1635.59 976.196C1636.14 978.911 1650.25 983.253 1658.12 980.812C1658.12 980.812 1649.43 1002.26 1638.03 1001.17C1626.63 1000.09 1623.11 993.03 1616.05 992.487C1609 991.943 1603.84 993.845 1607.37 995.746C1610.9 997.647 1622.84 996.37 1628.54 1001.21C1634.24 1006.06 1638.85 1009.05 1628.27 1011.22C1617.68 1013.39 1598.69 1012.03 1594.89 1003.89C1591.08 995.742 1591.08 995.742 1591.08 995.742Z" fill="#D4E4F8"/>
<path d="M1654.59 956.649C1654.59 956.649 1597.6 975.109 1591.09 995.738C1591.09 995.738 1591.36 1004.97 1585.66 1015.56V1019.63C1585.66 1019.63 1591.63 1005.79 1594.89 1003.89C1594.88 1003.89 1582.13 985.969 1654.59 956.649Z" fill="#D4E4F8"/>
<path d="M1585.66 1015.56C1585.66 1015.56 1576.87 1028.91 1581.88 1045.16L1584.14 1044.55C1584.14 1044.55 1581.95 1026.65 1586.54 1017.65C1591.14 1008.65 1585.66 1015.56 1585.66 1015.56Z" fill="#D4E4F8"/>
<path d="M1590.4 1080.4C1612.42 1080.4 1630.27 1062.55 1630.27 1040.52H1550.53C1550.53 1062.54 1568.38 1080.4 1590.4 1080.4Z" fill="#739AF0"/>
<path d="M1630.82 1082.43H1549.98C1549.98 1079.72 1552.18 1077.51 1554.9 1077.51H1625.9C1628.62 1077.51 1630.82 1079.71 1630.82 1082.43Z" fill="#D4E4F8"/>
<path d="M1631.17 1040.52H1549.22V1041.74H1631.17V1040.52Z" fill="#1C468A"/>
<path d="M1451.74 774.569C1445.87 771.523 1441.17 773.439 1441.17 773.439C1423.22 771.329 1417.98 792.277 1418.22 799.485C1418.46 806.693 1419.28 814.433 1411.27 823.799C1388.1 850.847 1436.62 852.039 1436.62 852.039C1437.03 830.43 1462.92 838.314 1461.79 840.505C1494.99 848.472 1465.09 781.495 1451.74 774.569Z" fill="#163560"/>
<path d="M1382.48 864.661C1382.48 864.661 1379.32 859.853 1376.77 859.757C1374.23 859.662 1369.52 858.345 1369.9 859.288C1370.27 860.231 1373.19 860.326 1373.48 860.892C1373.76 861.457 1369.14 862.304 1367.82 862.4C1366.5 862.495 1363.39 862.4 1363.48 863.061C1363.58 863.721 1369.09 866.455 1372.98 866.077C1376.87 865.699 1381.67 867.208 1381.67 867.208L1382.48 864.661Z" fill="#FFB27D"/>
<path d="M1428.14 866.217C1428.14 866.217 1426.43 869.615 1423.32 873.524C1419.56 878.225 1413.78 883.657 1406.51 884.728C1403.04 885.238 1399.65 884.493 1396.53 883.106C1396.52 883.102 1396.52 883.102 1396.52 883.102C1387.7 879.186 1381.06 870.177 1381.06 870.177C1379.51 865.934 1382.05 863.057 1382.05 863.057C1382.05 863.057 1399.87 867.064 1401.56 866.217C1403.26 865.369 1413.16 836.846 1415.51 833.264C1417.87 829.678 1425.9 827.817 1425.9 827.817L1428.14 866.217Z" fill="#F9DDBF"/>
<path d="M1423.32 873.524C1419.56 878.225 1413.78 883.657 1406.51 884.728C1403.04 885.238 1399.65 884.493 1396.53 883.106C1396.88 883.15 1405.69 884.24 1409.2 877.953C1412.78 871.542 1416.65 861.358 1421.98 864.752C1424.27 866.22 1424.17 869.861 1423.32 873.524Z" fill="#F2CCAA"/>
<path d="M1494.61 1058.58C1494.61 1058.58 1500.04 1063.54 1498.98 1067.07C1497.92 1070.6 1493.02 1072.94 1492.35 1077.26C1491.69 1081.56 1489.04 1083.92 1486.65 1083.92C1484.27 1083.92 1475.28 1083.92 1475.28 1083.92C1475.28 1083.92 1473.52 1080.89 1477.76 1079.97C1482.01 1079.06 1483.6 1073.99 1483.34 1069.29C1483.08 1064.59 1483.74 1058.32 1483.74 1058.32L1492.75 1056.23L1494.61 1058.58Z" fill="#233862"/>
<path d="M1448.6 1060.69C1448.6 1060.69 1450.55 1081.71 1448.17 1082.89L1417.63 1082.83C1417.63 1082.83 1417.63 1079.3 1422.53 1078.52C1427.44 1077.74 1436.05 1074.86 1437.51 1068.46C1438.97 1062.06 1448.6 1060.69 1448.6 1060.69Z" fill="#233862"/>
<path d="M1470.36 909.868C1464.08 895.768 1460.23 891.72 1460.97 887.345C1461.52 884.086 1459.3 826.617 1459.3 826.617C1458.56 826.386 1457.06 826.181 1456.25 825.997C1453.67 825.425 1451.54 823.612 1450.65 821.127C1449.58 818.129 1448.73 813.706 1448.75 808.161L1447.94 808.319L1434.41 811.001C1434.41 811.001 1434.72 815.262 1434.72 819.277C1434.72 819.31 1434.72 819.343 1434.72 819.376C1434.74 822.863 1432.45 825.942 1429.1 826.907C1427.39 827.403 1425.9 827.825 1425.9 827.825C1425.9 827.825 1420.93 842.02 1419.98 856.605C1419.03 871.19 1429.02 877.524 1419.9 906.667C1410.6 936.427 1473.83 917.655 1470.36 909.868Z" fill="#FFB27D"/>
<path d="M1434.4 810.998C1434.4 810.998 1434.71 815.259 1434.72 819.274C1442.29 819.061 1446.3 812.147 1447.94 808.315L1434.4 810.998Z" fill="#E8945B"/>
<path d="M1431.87 814.796C1431.87 814.796 1449.79 815.094 1449.81 803.926C1449.82 792.758 1452.14 785.275 1440.7 784.614C1429.26 783.954 1427.03 788.211 1426.12 791.94C1425.21 795.665 1427.21 814.433 1431.87 814.796Z" fill="#FFB27D"/>
<path d="M1432.54 784.339C1432.54 784.339 1437.44 797.441 1444.97 799.379C1452.5 801.316 1455.77 799.298 1455.77 799.298C1455.77 799.298 1449.99 794.707 1448.8 786.695C1448.8 786.695 1436.24 778.104 1432.54 784.339Z" fill="#163560"/>
<path d="M1433.75 785.403C1433.75 785.403 1430.11 786.765 1428.62 789.418C1427.15 792.013 1425.91 795.452 1426.2 799.672C1426.2 799.672 1422.5 790.765 1426.65 785.73C1431.06 780.386 1433.75 785.403 1433.75 785.403Z" fill="#163560"/>
<path d="M1435.77 807.871C1435.77 807.871 1434.54 809.5 1432.06 809.383C1430.07 809.288 1429.3 807.559 1429.3 807.559C1429.3 807.559 1432.96 806.675 1435.77 807.871Z" fill="#EBF3FA"/>
<path d="M1472.09 852.039C1472.09 852.039 1472.55 858.458 1472.09 866.162C1471.79 871.267 1466.63 878.107 1465.9 879.799C1464.06 884.042 1461.98 884.732 1461.98 884.732L1445.95 888.662L1440.31 890.042L1422.53 884.732C1422.53 884.732 1414.43 862.121 1417.68 849.39C1420.94 836.662 1425.91 827.821 1425.91 827.821C1425.91 827.821 1440.42 842.031 1459.31 826.617L1472.09 852.039Z" fill="#F9DDBF"/>
<path d="M1467.4 868.243C1467.1 873.347 1466.63 878.104 1465.9 879.796C1464.06 884.038 1461.98 884.728 1461.98 884.728L1445.95 888.659L1438.99 886.611C1438.99 886.611 1462.23 883.088 1459.66 863.075L1467.4 868.243Z" fill="#F2CCAA"/>
<path d="M1423.66 888.16C1423.66 888.16 1414.86 915.578 1414.29 924.911C1413.73 934.244 1431.12 1057.52 1431.82 1061.82C1432.48 1065.87 1437.52 1068.46 1437.52 1068.46C1437.52 1068.46 1439.83 1069.82 1443.13 1068.89C1447.72 1067.59 1449.17 1066.04 1449.17 1066.04C1449.17 1066.04 1456.02 978.13 1451.78 946.722C1447.54 915.314 1447.49 888.16 1447.49 888.16H1423.66Z" fill="#ED7D2B"/>
<path d="M1460.96 887.345C1460.96 887.345 1474.4 905.372 1475.65 917.56C1476.9 929.748 1477.61 972.555 1480.28 984.435C1482.94 996.314 1492.75 1019.18 1492.75 1056.23C1492.75 1056.23 1491.73 1058.36 1488.58 1059.49C1487.58 1059.85 1486.23 1060.2 1484.92 1060.5C1482.33 1061.1 1479.66 1059.83 1478.48 1057.45C1471.86 1044.1 1450.75 1001.05 1449.67 992.12C1448.9 985.796 1442.24 943.947 1427.7 919.388C1424.21 913.494 1429.84 890.046 1429.84 890.046L1460.96 887.345Z" fill="#F99746"/>
<path d="M1435.38 808.168C1435.38 808.168 1435.07 809.486 1431.79 809.28C1431.79 809.28 1429.04 809.111 1429.13 807.665C1429.13 807.665 1431.79 806.638 1435.38 808.168Z" fill="white"/>
<path d="M1422.25 883.928C1422.25 883.928 1425.79 886.725 1432.81 886.868C1441.2 887.037 1461.98 884.728 1461.98 884.728C1461.98 884.728 1462.91 887.308 1462.87 890.035C1462.87 890.035 1437.49 896.439 1422.78 890.971C1422.78 890.971 1420.88 887.4 1422.25 883.928Z" fill="#233862"/>
<path d="M1430.8 894.098C1428.69 894.098 1426.97 892.153 1426.97 889.763C1426.97 887.374 1428.69 885.429 1430.8 885.429C1432.91 885.429 1434.62 887.374 1434.62 889.763C1434.62 892.153 1432.91 894.098 1430.8 894.098ZM1430.8 886.699C1429.38 886.699 1428.24 888.075 1428.24 889.763C1428.24 891.452 1429.39 892.828 1430.8 892.828C1432.21 892.828 1433.35 891.452 1433.35 889.763C1433.35 888.075 1432.21 886.699 1430.8 886.699Z" fill="white"/>
<path d="M1458.35 853.276L1432.34 875.931L1463.34 911.546L1489.35 888.891L1458.35 853.276Z" fill="#B5453C"/>
<path d="M1456.12 888.971C1456.12 888.971 1446.59 890.086 1446.62 892.347C1446.65 894.608 1448.99 899.258 1450.17 899.463C1451.35 899.669 1457.93 893.176 1457.93 893.176L1456.12 888.971Z" fill="#FFB27D"/>
<path d="M1459.3 826.614C1459.3 826.614 1472.03 827.505 1476.9 839.367C1481.78 851.228 1491.03 871.138 1491.03 874.489C1491.03 877.84 1485.86 888.163 1458.1 894.101C1458.1 894.101 1455.23 891.081 1455.41 888.692C1455.41 888.692 1472.73 873.803 1472.69 872.063C1472.6 868.771 1469.85 864.426 1454.63 849.203C1450.5 845.059 1459.3 826.614 1459.3 826.614Z" fill="#F9DDBF"/>
<path d="M1560.85 755.61L1568.44 782.137C1568.55 782.526 1568.59 782.922 1568.57 783.308C1568.47 784.702 1567.52 785.954 1566.1 786.361L1520.05 799.544C1518.62 799.951 1517.14 799.386 1516.33 798.241C1516.11 797.933 1515.94 797.584 1515.83 797.199L1508.25 770.683C1507.73 768.87 1508.78 766.98 1510.58 766.462L1556.64 753.28C1558.44 752.762 1560.33 753.801 1560.85 755.61Z" fill="#CDE0FB"/>
<path d="M1568.57 783.308C1568.47 784.702 1567.52 785.954 1566.1 786.361L1520.05 799.544C1518.62 799.951 1517.14 799.386 1516.33 798.241L1539.79 776.863L1568.57 783.308Z" fill="#BED7FB"/>
<path d="M1560.85 755.61L1540.24 781.22L1508.63 772.037L1508.24 770.679C1507.72 768.866 1508.77 766.976 1510.58 766.459L1556.63 753.276C1558.44 752.762 1560.33 753.801 1560.85 755.61Z" fill="#DFEBFD"/>
<path d="M1195.67 1083.19H1195.53C1194.76 1083.19 1194.14 1082.55 1194.15 1081.78L1196.25 991.191L1202.4 990.472L1197.16 1081.79C1197.11 1082.57 1196.46 1083.19 1195.67 1083.19Z" fill="#B0D4FF"/>
<path d="M1159.8 1083.19H1159.67C1158.9 1083.19 1158.28 1082.55 1158.29 1081.78L1160.38 991.191L1166.54 990.472L1161.29 1081.79C1161.24 1082.57 1160.59 1083.19 1159.8 1083.19Z" fill="#95C0F4"/>
<path d="M1258.77 1083.19H1258.9C1259.67 1083.19 1260.29 1082.55 1260.28 1081.78L1258.19 991.191L1252.03 990.472L1257.28 1081.79C1257.33 1082.57 1257.98 1083.19 1258.77 1083.19Z" fill="#B0D4FF"/>
<path d="M1155.72 985.569V923.494C1155.72 912.573 1164.58 903.717 1175.5 903.717H1220.2C1231.12 903.717 1239.97 912.573 1239.97 923.494V987.943L1155.72 985.569Z" fill="#B0D4FF"/>
<path d="M1247.99 995.371H1161.66C1158.38 995.371 1155.73 992.714 1155.73 989.433V985.573H1247.99V995.371Z" fill="#95C0F4"/>
<path d="M1258.33 995.371H1193.02C1190.6 995.371 1188.63 993.404 1188.63 990.982V989.965C1188.63 987.54 1190.6 985.576 1193.02 985.576H1258.33C1260.75 985.576 1262.72 987.543 1262.72 989.965V990.982C1262.72 993.404 1260.75 995.371 1258.33 995.371Z" fill="#B0D4FF"/>
<path d="M1255.79 970.103C1249.39 981.253 1241.33 985.558 1241.33 985.558H1207.82C1207.82 985.558 1260.68 961.596 1255.79 970.103Z" fill="#233862"/>
<path d="M1230.05 1056.38C1229.18 1057.38 1229.07 1058.5 1229.5 1059.7C1229.5 1059.7 1229.5 1059.71 1229.51 1059.71C1230.31 1061.92 1232.95 1064.39 1236.02 1066.85C1236.41 1067.17 1236.76 1067.46 1237.06 1067.72C1237.14 1067.79 1237.22 1067.86 1237.3 1067.93C1237.36 1067.99 1237.42 1068.04 1237.48 1068.09C1240.34 1070.73 1239.26 1071.33 1244.4 1076.69C1250.26 1082.79 1254.29 1082.9 1255.44 1082.34C1256.41 1081.87 1254.44 1078.63 1252.25 1075C1252.15 1074.82 1252.04 1074.64 1251.93 1074.47C1251.64 1073.98 1251.35 1073.49 1251.06 1073.01C1248.5 1068.63 1249.16 1066.58 1249.77 1060.07C1250.26 1054.77 1258 1030.5 1258 1030.5L1246.77 1028.57C1246.77 1028.57 1243.39 1047.9 1239.66 1050.87C1237.67 1052.46 1235.44 1052.48 1233.52 1053.65C1233.39 1053.74 1233.26 1053.82 1233.12 1053.91C1232.04 1054.63 1230.93 1055.38 1230.05 1056.38Z" fill="#FFB27D"/>
<path d="M1230.05 1056.38C1229.18 1057.38 1229.07 1058.5 1229.5 1059.7C1229.5 1059.7 1229.5 1059.71 1229.51 1059.71C1230.49 1061.92 1233.06 1064.37 1236.03 1066.83C1236.42 1067.15 1236.76 1067.45 1237.06 1067.72C1237.14 1067.79 1237.22 1067.86 1237.3 1067.93C1237.36 1067.99 1237.42 1068.04 1237.48 1068.09C1240.34 1070.73 1239.26 1071.33 1244.4 1076.69C1250.26 1082.79 1254.29 1082.9 1255.44 1082.34C1256.41 1081.87 1254.44 1078.63 1252.25 1075C1251.11 1074.58 1245.81 1072.42 1241.81 1067.3C1238.28 1062.79 1235.93 1057.01 1233.52 1053.65C1233.39 1053.74 1233.26 1053.82 1233.12 1053.91C1232.04 1054.63 1230.93 1055.38 1230.05 1056.38Z" fill="#233862"/>
<path d="M1320.6 1049.36C1321.3 1052.83 1326.24 1052.25 1331.76 1050.91C1337.28 1049.56 1335.96 1051.16 1343.82 1050.29C1351.67 1049.42 1354.05 1046.49 1354.29 1045.32C1354.51 1044.28 1350.62 1043.92 1346.46 1043.44C1345.93 1043.38 1345.41 1043.31 1344.89 1043.25C1340.19 1042.66 1336.74 1039.62 1332.47 1037.13C1328.43 1034.77 1322.39 1025.15 1322.39 1025.15L1311.61 1026.01C1311.61 1026.01 1317.27 1034.6 1319.45 1038.33C1320.74 1040.53 1320.67 1043.43 1320.51 1045.68C1320.43 1046.9 1320.36 1048.14 1320.6 1049.36Z" fill="#FFB27D"/>
<path d="M1331.76 1050.91C1337.28 1049.56 1335.96 1051.16 1343.82 1050.29C1351.67 1049.42 1354.05 1046.49 1354.29 1045.32C1354.51 1044.28 1350.62 1043.92 1346.46 1043.44L1346.42 1043.52C1346.42 1043.52 1341.71 1046.86 1335.17 1047.02C1329.84 1047.14 1324.19 1045.62 1320.51 1045.68C1320.43 1046.89 1320.35 1048.14 1320.59 1049.36C1321.3 1052.83 1326.23 1052.25 1331.76 1050.91Z" fill="#233862"/>
<path d="M1279.31 980.449L1269.24 1007.56L1256.09 1042.96C1256.09 1042.96 1252.52 1043.31 1249.11 1042.32C1245.96 1041.41 1242.35 1039.03 1242.35 1039.03C1242.35 1039.03 1246 1001.02 1252.81 979.205C1254.56 973.605 1256.51 969.076 1258.67 966.525C1269.23 954.04 1279.31 980.449 1279.31 980.449Z" fill="#233862"/>
<path d="M1269.07 937.393C1262.47 935.264 1243.65 937.998 1224.75 941.698L1220.79 935.165L1179.96 931.976C1179.96 931.976 1166.48 961.868 1173.86 980.915C1174.95 983.715 1177.1 985.51 1180.77 985.569C1180.77 985.569 1181.37 985.569 1181.37 985.569C1181.37 985.569 1205.67 985.554 1213.57 985.554C1233.87 985.554 1256.54 971.59 1259.48 971.003C1264.28 970.041 1266.2 979.645 1271 989.731C1275.8 999.816 1316.12 1034.39 1316.12 1034.39C1316.12 1034.39 1322.32 1034.45 1324.88 1033.49C1327.63 1032.46 1328.64 1031.11 1328.64 1031.11C1328.64 1031.11 1283.95 942.193 1269.07 937.393Z" fill="#2B478B"/>
<path d="M1219.18 816.224C1213.95 813.475 1205.99 813.104 1204.7 812.932C1189.22 810.851 1179.91 833.345 1179.37 840.16C1178.36 852.722 1171.71 854.638 1162.36 862.503C1143.61 878.276 1149.11 896.608 1159.36 903.42C1165.52 907.504 1176.36 903.42 1176.36 903.42C1176.51 903.526 1206.01 886.923 1220.55 878.915C1242.35 875.814 1232.51 823.226 1219.18 816.224Z" fill="#233862"/>
<path d="M1208.36 872.096C1208.42 872.137 1201.21 874.603 1196.38 872.463C1191.84 870.456 1188.4 862.983 1188.46 862.98C1190.53 862.884 1192.8 861.079 1194.54 849.225L1195.42 849.54L1210.21 854.862C1210.21 854.862 1209.14 859.607 1208.45 864.129C1207.87 867.923 1207.55 871.56 1208.36 872.096Z" fill="#FFB27D"/>
<path d="M1210.22 854.865C1210.22 854.865 1209.15 859.611 1208.45 864.132C1199.96 862.602 1196.62 854.135 1195.43 849.544L1210.22 854.865Z" fill="#ED975D"/>
<path d="M1212.42 859.574C1212.42 859.574 1192.18 856.858 1194.07 844.277C1195.96 831.7 1194.61 822.878 1207.61 824.078C1220.61 825.282 1222.4 830.456 1222.79 834.809C1223.17 839.161 1217.73 859.959 1212.42 859.574Z" fill="#FFB27D"/>
<path d="M1222.05 827.917C1222.05 827.917 1209.1 839.081 1200.29 839.984C1191.48 840.883 1188.14 838.053 1188.14 838.053C1188.14 838.053 1193.33 833.741 1196.46 826.779C1197.38 824.727 1199.32 823.318 1201.56 823.127C1207.86 822.584 1219.78 822.335 1222.05 827.917Z" fill="#233862"/>
<path d="M1213.95 826.915C1213.95 826.915 1218.28 831.106 1219.65 834.214C1220.97 837.213 1221.36 844.388 1220.31 847.239C1220.31 847.239 1227.06 834.108 1223.24 827.726C1219.19 820.962 1213.95 826.915 1213.95 826.915Z" fill="#233862"/>
<path d="M1225.4 901.915C1224.79 942.887 1225.23 934.325 1220.75 938.215C1219.67 939.151 1216.63 939.709 1212.64 939.973C1200.08 940.806 1178.01 938.736 1177.16 936.417C1174.27 928.383 1176.31 925.887 1173.9 913.589C1173.64 912.283 1173.33 910.866 1172.97 909.325C1170.95 900.876 1168.99 898.003 1176.14 884.431C1182.62 872.137 1189.36 862.161 1189.97 862.521C1207.07 872.68 1208.45 864.14 1208.45 864.14C1208.45 864.14 1225.7 881.928 1225.4 901.915Z" fill="white"/>
<path d="M1269.24 1007.56L1256.09 1042.96C1256.09 1042.96 1252.52 1043.31 1249.11 1042.32C1245.96 1041.41 1242.35 1039.03 1242.35 1039.03C1242.35 1039.03 1246 1001.02 1252.81 979.205L1269.24 1007.56Z" fill="#2B478B"/>
<path d="M1208.45 864.132C1208.45 864.132 1226.05 867.116 1228.12 874.698C1230.19 882.28 1242.35 926.845 1242.35 926.845C1242.35 926.845 1233.4 928.453 1229.27 924.316C1225.13 920.18 1214.89 885.954 1214.89 885.954L1208.45 864.132Z" fill="white"/>
<path d="M1212.64 939.969C1200.08 940.802 1178.01 938.732 1177.16 936.413C1174.27 928.379 1176.31 925.884 1173.9 913.585L1179.95 896.524C1179.95 896.524 1178.95 915.523 1184.55 920.522C1190.15 925.52 1207.49 930.17 1210.21 934.347C1211.53 936.347 1212.39 938.354 1212.64 939.969Z" fill="#EBF3FF"/>
<path d="M1198.25 931.979C1198.25 931.979 1210.64 929.22 1212.64 930.321C1214.64 931.422 1219.53 935.426 1220.14 936.82C1220.75 938.215 1215.69 935.763 1214.04 935.319C1212.98 935.033 1210.17 936.009 1208.78 936.472C1202.93 938.42 1199.35 937.418 1199.35 937.418L1198.25 931.979Z" fill="#FFB27D"/>
<path d="M1189.95 862.503C1189.95 862.503 1173.32 863.527 1167.56 871.564C1159.45 882.875 1143.36 931.084 1152.58 937.51C1162.96 944.751 1199.83 939.404 1199.83 939.404C1199.83 939.404 1201.05 933.668 1199.35 930.893C1197.64 928.119 1169.9 923.638 1168.62 922.357C1167.34 921.076 1184.63 897.386 1184.63 893.544C1184.63 889.701 1189.95 862.503 1189.95 862.503Z" fill="white"/>
<path d="M1213.24 933.767C1213.24 933.767 1215.84 937.117 1216.69 937.518C1217.54 937.918 1218.09 937.818 1218.09 937.818L1216.34 934.67L1213.24 933.767Z" fill="#FFB27D"/>
<path d="M1212.64 930.317L1220.19 933.983C1220.19 933.983 1219.87 934.508 1218.94 934.468C1218.01 934.424 1215.66 933.569 1215.66 933.569L1212.64 930.317Z" fill="#FFB27D"/>
<path d="M1216.69 942.648H1276.4L1294.36 897.97H1234.74L1216.69 942.648Z" fill="#F99746"/>
<path d="M1277.1 940.909H1198.25V942.648H1276.4L1277.1 940.909Z" fill="#ED7D2B"/>
<path d="M1261.33 920.309C1261.78 918.738 1260.87 917.465 1259.3 917.465C1257.73 917.465 1256.09 918.738 1255.64 920.309C1255.19 921.88 1256.1 923.153 1257.67 923.153C1259.24 923.153 1260.87 921.88 1261.33 920.309Z" fill="white"/>
<path d="M940.552 993.246H940.362C938.142 993.246 936.344 991.448 936.344 989.228V904.377C936.344 902.157 938.142 900.359 940.362 900.359H940.552C942.772 900.359 944.57 902.157 944.57 904.377V989.228C944.573 991.444 942.772 993.246 940.552 993.246Z" fill="#B0D4FF"/>
<path d="M940.424 1083.19H940.292C939.518 1083.19 938.898 1082.55 938.913 1081.78L941.004 991.191L947.16 990.472L941.91 1081.79C941.866 1082.57 941.213 1083.19 940.424 1083.19Z" fill="#95C0F4"/>
<path d="M1039.39 1083.19H1039.52C1040.29 1083.19 1040.92 1082.55 1040.9 1081.78L1038.81 991.191L1032.65 990.472L1037.9 1081.79C1037.95 1082.57 1038.6 1083.19 1039.39 1083.19Z" fill="#B0D4FF"/>
<path d="M1038.95 985.569H1028.6H973.641H936.344V989.43C936.344 992.711 939.001 995.368 942.281 995.368H973.641H1028.6H1038.95C1041.37 995.368 1043.34 993.4 1043.34 990.978V989.962C1043.34 987.536 1041.37 985.569 1038.95 985.569Z" fill="#B0D4FF"/>
<path d="M1090.31 1063.82C1090.31 1063.82 1088.8 1082.6 1092.16 1082.85C1092.61 1082.89 1109.22 1082.89 1109.22 1082.89L1130.41 1082.76C1130.41 1082.76 1130.27 1077.66 1124.08 1076.57C1117.88 1075.49 1105.62 1070.28 1101.86 1062.08C1097.92 1053.47 1090.31 1063.82 1090.31 1063.82Z" fill="#163560"/>
<path d="M962.789 960.921C962.789 960.921 963.493 979.381 966.747 985.569H1041.72C1041.72 985.569 1059.73 987.433 1061.38 988.648C1063.45 990.182 1054.16 1005.39 1088.98 1064.83L1106.03 1064.4C1106.03 1064.4 1088.19 968 1085.03 965.56C1080.29 961.912 1024.82 949.206 1015.33 948.931C1005.83 948.652 962.789 960.921 962.789 960.921Z" fill="#1C468A"/>
<path d="M1004.82 851.544C1010.61 855.13 1010.93 862.268 1010.93 862.268C996.824 865.919 976.29 850.248 976.29 850.248C976.29 850.248 985.374 844.145 988.738 830.728C988.907 830.052 989.064 829.355 989.2 828.647C989.64 826.386 989.916 823.942 989.963 821.303L996.446 827.113L1007.22 836.772C1007.22 836.772 1006.98 840.78 1005.63 847.676C1005.4 848.88 1005.13 850.171 1004.82 851.544Z" fill="#FFB27D"/>
<path d="M1012.79 925.649C1012.31 928.797 1013.29 931.333 1013.76 933.675C1013.94 934.57 1014.04 935.436 1013.97 936.299C1013.2 945.011 1016.3 946.116 1015.33 948.927C1015.33 948.927 1012.01 950.869 1005.94 953.17C1003.3 954.168 1000.13 955.24 996.486 956.245C996.295 956.297 996.105 956.348 995.91 956.403C981.804 960.216 966.975 961.031 962.785 960.921C954.784 960.708 953.166 940.413 956.137 914.855C960.764 875.039 967.015 855.735 983.495 841.785C984.533 840.908 983.833 843.896 989.373 846.567C994.49 849.03 1000.66 849.61 1005.46 848.546L1009.22 852.41C1016.71 864.238 1017.49 878.276 1016.86 889.98C1016.06 904.777 1014.18 916.584 1012.79 925.649Z" fill="#B0D4FF"/>
<path d="M1007.22 836.772C1007.22 836.772 1007.8 836.167 1006.45 843.063C994.512 839.605 990.624 833.524 989.028 829.487C988.573 828.346 993.467 827.74 996.446 827.109L1007.22 836.772Z" fill="#ED975D"/>
<path d="M1012.78 836.805C1012.78 836.805 989.74 840.105 987.905 825.722C986.071 811.339 981.863 802.08 996.494 799.364C1011.12 796.648 1014.69 801.771 1016.47 806.425C1018.25 811.079 1018.72 835.576 1012.78 836.805Z" fill="#FFB27D"/>
<path d="M1099.46 943.419L1101.22 943.97L1115.65 897.823L1113.89 897.272L1099.46 943.419Z" fill="#1C468A"/>
<path d="M1050.54 943.439L1101.26 943.967L1101.29 940.932L1050.58 940.404L1050.54 943.439Z" fill="#1C468A"/>
<path d="M980.56 799.658C980.377 799.441 979.948 799.265 978.99 799.206C978.99 799.206 979.76 798.733 980.784 798.718C980.993 797.389 981.723 795.037 984.016 794.483C984.016 794.483 982.78 795.129 982.607 796.545C985.282 793.841 990.983 791.899 1006.72 793.268C1027.45 795.07 1020.51 808.304 1017.81 809.867C1015.11 811.431 1008.39 807.034 1003.38 807.39C998.372 807.746 997.363 814.976 995.657 815.956C993.951 816.936 994.634 815.185 992.344 814.128C990.055 813.071 989.805 816.877 990.451 819.358C991.097 821.839 987.912 825.08 987.912 825.08C987.912 825.08 987.912 825.08 984.75 821.619C981.587 818.158 978.697 803.577 980.171 800.487C980.296 800.212 980.424 799.933 980.56 799.658Z" fill="#2C3A64"/>
<path d="M1015.33 948.927C1015.33 948.927 1012.01 950.869 1005.94 953.17C979.654 933.987 979.797 888.578 979.654 887.804L1012.67 916.881L1013.75 933.671C1013.94 934.567 1014.04 935.433 1013.97 936.295C1013.2 945.012 1016.3 946.116 1015.33 948.927Z" fill="#91B8EF"/>
<path d="M1062.91 927.568C1062.91 927.568 1065.03 927.913 1067.26 926.863C1069.49 925.817 1077.18 922.511 1078.63 922.962C1080.07 923.414 1084.79 926.078 1085.9 926.584C1087.01 927.091 1088.98 929.689 1088.98 929.689C1088.16 930.511 1085.3 928.625 1084.02 928.662C1082.73 928.698 1073.28 933.866 1070.47 933.976C1067.66 934.09 1063.28 933.513 1063.28 933.513L1062.91 927.568Z" fill="#FFB27D"/>
<path d="M1080.05 927.979C1080.08 928.133 1083.51 931.957 1086.12 930.746L1083.26 927.913L1080.05 927.979Z" fill="#FFB27D"/>
<path d="M1067.26 926.863C1067.26 926.863 1070.33 924.012 1071.35 922.643C1071.35 922.643 1071.97 922.925 1071.99 923.443C1072.03 924.309 1071.19 925.902 1071.19 925.902L1067.26 926.863Z" fill="#FFB27D"/>
<path d="M1006.71 859.112C989.787 848.806 969.818 866.811 978.216 884.761C987.953 905.574 1004.16 930.955 1017.03 932.456C1026.21 933.524 1052.45 936.89 1063.55 934.816C1063.55 934.816 1068.94 935.081 1066.02 926.412C1066.02 926.412 1030.12 916.404 1024.16 908.642C1020.96 904.484 1015.52 896.061 1007.1 859.357C1007.07 859.203 1006.84 859.192 1006.71 859.112Z" fill="#B0D4FF"/>
<path d="M1461.61 1083.19H1461.8C1462.87 1083.19 1463.72 1082.31 1463.7 1081.24L1460.81 956.095L1452.31 955.104L1459.56 1081.25C1459.62 1082.34 1460.52 1083.19 1461.61 1083.19Z" fill="#739AF0"/>
<path d="M1043.59 1083.19H1043.41C1042.34 1083.19 1041.48 1082.31 1041.51 1081.24L1044.39 956.095L1052.89 955.104L1045.64 1081.25C1045.58 1082.34 1044.68 1083.19 1043.59 1083.19Z" fill="#739AF0"/>
<path d="M1469.02 958.396H1035.1C1031.94 958.396 1029.38 955.834 1029.38 952.678V949.016C1029.38 945.856 1031.94 943.298 1035.1 943.298H1469.02C1472.18 943.298 1474.73 945.859 1474.73 949.016V952.678C1474.74 955.834 1472.18 958.396 1469.02 958.396Z" fill="#739AF0"/>
<path d="M1397.54 638.434C1397.54 648.916 1401.25 658.528 1407.43 666.033C1412.77 672.521 1415.74 680.643 1415.74 689.047V701.169C1415.74 708.876 1422.04 715.181 1429.75 715.181H1452.16C1459.87 715.181 1466.17 708.876 1466.17 701.169V689.025C1466.17 680.603 1469.18 672.488 1474.52 665.978C1480.73 658.418 1484.43 648.729 1484.37 638.17C1484.23 614.216 1464.9 595 1440.96 595C1438.3 595 1435.69 595.242 1433.16 595.701C1432.6 595.804 1432.04 595.914 1431.49 596.039C1412.06 600.358 1397.54 617.699 1397.54 638.434Z" fill="#F9DDBF"/>
<path d="M1452.08 715.181L1452.03 715.556L1451.42 720.279L1451.25 721.523V721.534L1451.09 722.786L1450.48 727.505L1450.31 728.749L1450.31 728.76L1450.15 730.016L1450.06 730.706C1449.75 733.102 1447.01 734.93 1443.73 734.93H1436.35C1435.57 734.93 1434.83 734.827 1434.14 734.636H1434.13C1433.51 734.464 1432.93 734.221 1432.41 733.92L1432.37 733.898C1431.96 733.653 1431.58 733.366 1431.26 733.047C1430.6 732.394 1430.16 731.612 1430.04 730.75L1429.78 728.918L1429.61 727.766V727.762L1429.61 727.737V727.733L1429.45 726.606L1428.82 722.228L1428.65 721.079L1428.65 721.053L1428.49 719.919L1427.81 715.178H1452.08V715.181Z" fill="#95C0F4"/>
<path d="M1449.15 715.181H1449.1H1444.98C1438.26 717.127 1431.58 719.05 1428.49 719.923L1428.65 721.057L1428.66 721.083L1428.82 722.232C1431.33 721.538 1437.34 719.817 1452.03 715.556L1452.08 715.181H1449.15Z" fill="#739AF0"/>
<path d="M1429.61 727.737L1429.61 727.762V727.766L1429.78 728.918C1432.67 728.104 1438.65 726.39 1451.09 722.782L1451.25 721.531V721.52L1451.42 720.275C1443.55 722.551 1434.04 725.303 1429.45 726.606L1429.61 727.737Z" fill="#739AF0"/>
<path d="M1432.38 733.899L1432.42 733.921C1432.94 734.221 1433.51 734.464 1434.14 734.636H1434.14C1437.55 733.656 1442.62 732.196 1450.15 730.012L1450.31 728.757L1450.31 728.746L1450.48 727.502C1443.75 729.45 1436.03 731.682 1431.26 733.043C1431.59 733.366 1431.96 733.653 1432.38 733.899Z" fill="#739AF0"/>
<path d="M1424.76 659.484L1422.82 659.811L1432.23 715.379L1434.17 715.051L1424.76 659.484Z" fill="white"/>
<path d="M1456.93 660.296L1446.93 714.987L1448.86 715.34L1458.86 660.65L1456.93 660.296Z" fill="white"/>
<path d="M1446.13 669.696C1445.88 669.696 1445.6 669.663 1445.28 669.593C1444.76 669.472 1444.43 669.108 1444.32 668.539C1444.1 667.314 1445.06 665.06 1446.41 663.152C1445.71 661.919 1444.77 660.899 1443.78 660.601C1442.32 660.157 1440.09 661.504 1438.53 663.225C1438.81 663.629 1439.07 664.051 1439.29 664.473C1440.09 665.981 1440.67 667.908 1439.88 668.8C1439.59 669.13 1439 669.431 1437.82 668.987C1436.35 668.433 1435.82 667.185 1436.37 665.567C1436.63 664.774 1437.13 663.948 1437.76 663.181C1436.55 661.607 1434.94 660.41 1433.35 660.612C1432.51 660.719 1431.78 661.016 1431.17 661.434C1432.19 663.324 1432.42 665.725 1431.72 667.013C1431.24 667.89 1430.4 668.169 1429.35 667.798C1428.61 667.53 1428.21 666.499 1428.36 665.17C1428.5 663.809 1429.18 662.319 1430.39 661.284C1430.08 660.792 1429.7 660.355 1429.26 660.018C1426.53 657.893 1424.26 660.172 1424.17 660.271L1423.74 659.856C1423.77 659.827 1426.48 657.1 1429.63 659.548C1430.11 659.919 1430.52 660.392 1430.87 660.924C1431.54 660.466 1432.34 660.143 1433.28 660.025C1435.06 659.801 1436.84 661.06 1438.16 662.73C1439.85 660.888 1442.27 659.526 1443.95 660.036C1445.01 660.359 1446.02 661.387 1446.79 662.653C1447.5 661.724 1448.3 660.917 1449.07 660.407C1450.31 659.585 1451.12 659.772 1451.58 660.076C1452.05 660.385 1452.45 660.803 1452.78 661.28C1453.15 660.983 1453.54 660.73 1453.93 660.539C1455.37 659.823 1456.69 659.875 1457.65 660.686L1457.26 661.141C1456.23 660.264 1454.9 660.722 1454.2 661.071C1453.81 661.262 1453.44 661.508 1453.09 661.787C1454.05 663.512 1454.23 665.761 1453.69 666.851C1453.34 667.538 1452.72 667.776 1452.01 667.512C1450.71 667.035 1450.39 666.143 1450.35 665.475C1450.29 664.202 1451.17 662.748 1452.32 661.68C1452.02 661.236 1451.66 660.851 1451.25 660.579C1450.69 660.209 1449.93 660.554 1449.4 660.91C1448.62 661.42 1447.82 662.264 1447.1 663.218C1447.99 664.914 1448.45 666.892 1448.12 668.165C1447.96 668.771 1447.48 669.696 1446.13 669.696ZM1446.72 663.732C1445.55 665.449 1444.72 667.391 1444.91 668.429C1444.97 668.76 1445.13 668.943 1445.42 669.009C1446.58 669.273 1447.3 668.932 1447.54 668C1447.83 666.921 1447.46 665.233 1446.72 663.732ZM1438.13 663.691C1437.59 664.37 1437.16 665.086 1436.93 665.758C1436.48 667.086 1436.85 667.985 1438.03 668.429C1438.5 668.609 1439.13 668.749 1439.43 668.407C1439.9 667.879 1439.63 666.374 1438.77 664.752C1438.58 664.392 1438.36 664.036 1438.13 663.691ZM1430.7 661.805C1429.66 662.73 1429.08 664.036 1428.95 665.233C1428.84 666.246 1429.09 667.071 1429.55 667.237C1430.31 667.505 1430.86 667.336 1431.19 666.727C1431.8 665.626 1431.58 663.504 1430.7 661.805ZM1452.63 662.187C1451.6 663.178 1450.89 664.451 1450.95 665.431C1450.99 666.143 1451.41 666.649 1452.21 666.943C1452.65 667.105 1452.95 666.987 1453.16 666.576C1453.62 665.659 1453.42 663.706 1452.63 662.187Z" fill="white"/>
<path d="M932.379 750.245H925.133V776.911H932.379V750.245Z" fill="#F9DDBF"/>
<path d="M931.472 747.606H926.369C925.87 747.606 925.463 747.198 925.463 746.699C925.463 746.2 925.87 745.793 926.369 745.793H931.472C931.971 745.793 932.378 746.2 932.378 746.699C932.378 747.198 931.971 747.606 931.472 747.606Z" fill="#F9DDBF"/>
<path d="M919.883 729.304H912.637V776.911H919.883V729.304Z" fill="#F9DDBF"/>
<path d="M918.815 727.329H913.712C913.213 727.329 912.806 726.922 912.806 726.423C912.806 725.923 913.213 725.516 913.712 725.516H918.815C919.314 725.516 919.721 725.923 919.721 726.423C919.721 726.922 919.31 727.329 918.815 727.329Z" fill="#F9DDBF"/>
<path d="M907.912 696.152H900.666V776.911H907.912V696.152Z" fill="#F9DDBF"/>
<path d="M906.844 693.95H901.741C901.242 693.95 900.835 693.543 900.835 693.044C900.835 692.545 901.242 692.137 901.741 692.137H906.844C907.343 692.137 907.75 692.545 907.75 693.044C907.747 693.543 907.339 693.95 906.844 693.95Z" fill="#F9DDBF"/>
<path d="M895.625 710.807H888.379V776.914H895.625V710.807Z" fill="#F9DDBF"/>
<path d="M894.557 709.038H889.454C888.955 709.038 888.548 708.63 888.548 708.131C888.548 707.632 888.955 707.225 889.454 707.225H894.557C895.056 707.225 895.464 707.632 895.464 708.131C895.46 708.63 895.053 709.038 894.557 709.038Z" fill="#F9DDBF"/>
<path d="M883.654 674.121H876.408V776.914H883.654V674.121Z" fill="#F9DDBF"/>
<path d="M882.583 672.151H877.479C876.98 672.151 876.573 671.743 876.573 671.244C876.573 670.745 876.98 670.338 877.479 670.338H882.583C883.082 670.338 883.489 670.745 883.489 671.244C883.489 671.743 883.082 672.151 882.583 672.151Z" fill="#F9DDBF"/>
<path d="M871.998 690.174H864.752V776.914H871.998V690.174Z" fill="#F9DDBF"/>
<path d="M870.927 688.332H865.824C865.325 688.332 864.918 687.924 864.918 687.425C864.918 686.926 865.325 686.519 865.824 686.519H870.927C871.426 686.519 871.833 686.926 871.833 687.425C871.833 687.921 871.426 688.332 870.927 688.332Z" fill="#F9DDBF"/>
<path d="M1404.57 943.294H1344.86L1326.9 898.615H1386.52L1404.57 943.294Z" fill="#2B478B"/>
<path d="M1344.16 941.554H1423.01V943.294H1344.86L1344.16 941.554Z" fill="#2B478B"/>
<path d="M1359.93 920.955C1359.48 919.384 1360.39 918.111 1361.96 918.111C1363.53 918.111 1365.17 919.384 1365.62 920.955C1366.07 922.526 1365.16 923.799 1363.59 923.799C1362.02 923.799 1360.39 922.526 1359.93 920.955Z" fill="white"/>
<path d="M1724.54 1083.22V1083.65C1724.54 1084.34 1724.01 1084.91 1723.37 1084.91H694.17C693.528 1084.91 693 1084.34 693 1083.65V1083.22C693 1082.53 693.528 1081.96 694.17 1081.96H1723.37C1724.01 1081.96 1724.54 1082.52 1724.54 1083.22Z" fill="#2E3552"/>
</g>
<defs>
<clipPath id="clip0_15_251">
<rect width="1728" height="1117" fill="white"/>
</clipPath>
</defs>
</svg>
