<svg width="521" height="533" viewBox="0 0 521 533" fill="none" xmlns="http://www.w3.org/2000/svg">
<path d="M911.649 27.7239C881.377 -2.20384 834.719 -7.92606 798.112 13.7996L668.521 90.7094C647.09 103.428 621.681 107.687 597.274 102.65L241.529 29.2396C168.706 14.2122 105.538 81.0923 124.694 152.939L175.764 344.479C184.904 378.76 175.197 415.317 150.254 440.547L29.7783 562.408C-3.02916 595.593 -8.52346 647.058 16.5388 686.421L66.233 764.471C70.2502 770.781 74.9625 776.619 80.2816 781.878L119.095 820.25C158.371 859.078 221.686 858.716 260.514 819.441L912.406 160.047C948.737 123.298 948.398 64.0549 911.649 27.7239V27.7239Z" fill="#CAF0F8" fill-opacity="0.5"/>
</svg>
