<svg width="1032" height="490" viewBox="0 0 1032 490" fill="none" xmlns="http://www.w3.org/2000/svg">
<path d="M679.739 205.153L686.379 189.589L686.537 189.218C687.333 187.317 686.588 185.13 684.805 184.128L672.489 177.202C672.284 177.089 672.097 176.96 671.92 176.821C670.717 175.819 670.159 174.186 670.614 172.659C673.171 163.62 673.913 154.184 672.768 144.866C672.728 144.481 672.742 144.095 672.797 143.732C673.028 142.345 674.001 141.137 675.347 140.616L686.383 136.465C687.832 135.907 688.811 134.561 688.965 133.082C688.998 132.63 688.98 132.146 688.859 131.669L684.541 114.937C684.016 112.882 681.969 111.546 679.856 111.913L664.392 114.537C662.866 114.79 661.34 114.152 660.456 112.875C659.157 111.058 657.799 109.293 656.325 107.575C653.558 104.353 650.568 101.457 647.395 98.8735L647.38 98.8588C646.056 97.7799 645.535 96.0329 646.067 94.4145L651.045 79.2794L651.287 78.516C651.944 76.5783 650.987 74.4166 649.075 73.6056L633.171 66.8087C631.23 65.994 628.97 66.7463 627.939 68.5887L620.231 82.2961C619.377 83.8228 617.641 84.6302 615.95 84.2889C608.767 82.9641 601.411 82.7365 594.158 83.665C592.309 83.8816 590.559 82.8246 589.895 81.0703L584.945 67.9978C584.186 66.0087 582.08 64.9407 580.051 65.4692L563.252 69.7961C561.267 70.3136 560.013 72.266 560.357 74.2662L563.414 92.4547C563.681 93.9961 563.039 95.5522 561.774 96.477C560.211 97.6074 558.684 98.8148 557.199 100.096C554.388 102.51 551.824 105.087 549.502 107.795C548.456 109.036 546.772 109.535 545.235 109.006L527.056 103.002C525.046 102.353 522.9 103.329 522.074 105.252L515.246 121.213C514.535 122.905 515.07 124.879 516.49 125.98C516.637 126.09 516.798 126.215 516.978 126.299L532.178 134.862C533.594 135.651 534.416 137.188 534.24 138.796C534.229 138.935 534.218 139.078 534.181 139.218C534.093 139.636 534.005 140.029 533.957 140.466C533.018 145.394 532.622 150.437 532.754 155.476C532.827 157.157 531.771 158.698 530.167 159.285L516.365 164.522C514.406 165.256 513.324 167.374 513.852 169.404L514.806 173.125L518.17 186.106C518.684 188.146 520.687 189.434 522.771 189.097L538.004 186.513C539.629 186.223 541.232 187.012 542.061 188.44C544.222 192.183 546.787 195.813 549.725 199.233C551.905 201.769 554.256 204.136 556.707 206.28L555.658 209.454L551.38 222.483C550.833 224.09 551.395 225.852 552.697 226.843C552.965 227.063 553.266 227.228 553.596 227.364L569.592 234.241C571.492 235.038 573.679 234.267 574.695 232.495L579.945 223.118C580.833 221.536 582.726 220.729 584.476 221.202C591.74 223.173 599.246 223.98 606.705 223.591C608.473 223.496 610.069 224.527 610.645 226.145L616.897 242.671C617.608 244.514 619.578 245.545 621.501 245.05L638.476 240.649C640.49 240.132 641.76 238.168 641.4 236.154L638.212 217.231C637.922 215.605 638.671 213.983 640.087 213.11C643.11 211.249 646.012 209.098 648.807 206.694C650.312 205.403 651.746 204.059 653.114 202.672C654.189 201.589 655.782 201.197 657.238 201.663L674.668 207.41C676.708 208.078 678.884 207.105 679.739 205.153ZM634.426 132.138C642.277 143.655 643.238 156.687 638.92 166.684C623.724 201.703 576.588 198.569 565.905 162.475C563.285 153.201 564.397 142.862 571.085 132.792C586.75 109.472 619.402 110.137 634.426 132.138Z" fill="#FFB27D"/>
<path d="M463.411 417.958L478.662 391.798L479.021 391.174C480.859 387.978 480.023 383.93 477.077 381.753L456.752 366.721C456.414 366.472 456.106 366.204 455.831 365.914C453.92 363.87 453.289 360.845 454.441 358.236C460.989 342.752 464.398 326.168 464.438 309.366C464.449 308.669 464.559 307.994 464.743 307.359C465.465 304.944 467.457 303.021 469.963 302.39L490.479 297.468C493.175 296.8 495.215 294.628 495.82 292.033C495.982 291.237 496.052 290.374 495.945 289.497L491.994 258.827C491.517 255.058 488.186 252.235 484.348 252.415L456.308 253.637C453.545 253.751 450.974 252.272 449.69 249.813C447.789 246.297 445.771 242.862 443.533 239.49C439.336 233.155 434.67 227.349 429.614 222.057L429.596 222.028C427.483 219.815 426.947 216.603 428.253 213.844L440.452 188.077L441.05 186.774C442.649 183.478 441.424 179.43 438.21 177.562L411.483 161.957C408.218 160.082 404.043 160.915 401.798 163.95L385.065 186.575C383.208 189.097 379.947 190.143 377.019 189.159C364.556 185.21 351.551 183.17 338.464 183.21C335.137 183.181 332.257 180.92 331.472 177.654L325.587 153.344C324.681 149.644 321.181 147.277 317.461 147.765L286.672 151.714C283.033 152.191 280.373 155.377 280.542 159.006L281.932 191.978C282.064 194.771 280.579 197.391 278.128 198.76C275.101 200.422 272.126 202.224 269.198 204.166C263.673 207.832 258.544 211.836 253.826 216.126C251.695 218.101 248.591 218.607 245.982 217.33L215.04 202.632C211.617 201.032 207.589 202.287 205.692 205.52L190.023 232.344C188.387 235.192 188.893 238.814 191.175 241.086C191.413 241.314 191.67 241.574 191.967 241.765L217.054 260.346C219.395 262.06 220.51 264.978 219.839 267.789C219.787 268.038 219.74 268.284 219.637 268.523C219.388 269.25 219.145 269.925 218.966 270.688C216.203 279.232 214.38 288.095 213.496 297.068C213.25 300.07 211.038 302.57 208.055 303.259L182.388 309.487C178.749 310.354 176.357 313.877 176.841 317.595L177.707 324.417L180.8 348.213C181.258 351.953 184.531 354.684 188.306 354.544L215.928 353.34C218.881 353.19 221.548 354.944 222.704 357.664C225.709 364.791 229.458 371.808 233.912 378.528C237.218 383.515 240.864 388.238 244.739 392.591L242.171 397.993L231.682 420.178C230.353 422.909 230.962 426.16 233.054 428.216C233.479 428.663 233.975 429.023 234.532 429.342L261.406 445.105C264.601 446.944 268.659 446.059 270.853 443.142L282.259 427.661C284.185 425.052 287.725 424.036 290.734 425.265C303.193 430.377 316.345 433.482 329.67 434.447C332.829 434.675 335.437 436.859 336.098 439.861L343.527 470.59C344.382 474.021 347.647 476.285 351.176 475.838L382.291 471.797C385.978 471.331 388.671 468.123 388.48 464.464L387.024 430.161C386.873 427.206 388.557 424.498 391.265 423.261C397.047 420.63 402.678 417.455 408.174 413.807C411.131 411.847 413.978 409.785 416.715 407.623C418.865 405.939 421.778 405.597 424.262 406.746L453.931 420.828C457.376 422.476 461.455 421.235 463.411 417.958ZM399.175 278.252C402.994 285.699 405.676 294.154 406.945 303.593C407.239 305.594 407.323 307.858 407.305 310.236C407.092 320.486 404.01 332.895 399.479 340.587C364.721 399.384 281.727 383.343 270.779 316.886C270.614 315.793 270.446 314.699 270.31 313.583C268.974 303.201 272.262 287.214 277.482 278.16C280.226 273.415 283.29 269.147 286.566 265.337C319.559 227.412 377.386 235.845 399.175 278.252Z" fill="#739AF0"/>
<path d="M105.836 488.015C105.836 488.015 105.025 481.699 103.147 477.944C101.268 474.19 89.323 476.579 89.323 476.579C89.323 476.579 86.9346 478.627 86.421 488.187L105.836 488.015Z" fill="#233862"/>
<path d="M146.534 487.93C143.727 486.216 145.323 473.43 145.323 473.43C145.323 473.43 158.402 462.963 160.2 470.978C161.997 478.994 172.626 482.59 178.675 483.57C182.85 484.249 184.146 486.561 184.545 487.93H146.534Z" fill="#233862"/>
<path d="M119.443 394.94C119.975 397.876 120.313 400.28 120.405 402.008C121.619 425.731 140.37 479.977 143.723 481.243C148.911 483.203 157.081 479.038 161.359 477.676C163.131 477.111 164.327 475.324 163.931 473.511C154.645 430.814 151.233 369.33 149.993 332.931C149.366 314.596 146.222 301.931 146.222 301.931C146.222 301.931 100.494 289.728 100.223 305.164C99.977 318.824 115.364 372.402 119.443 394.94Z" fill="#213F7A"/>
<path d="M119.443 394.94L149.989 332.931C149.362 314.596 146.218 301.931 146.218 301.931C146.218 301.931 100.491 289.728 100.219 305.164C99.977 318.824 115.364 372.402 119.443 394.94Z" fill="#233862"/>
<path d="M129.617 305.219L105.444 480.473C105.444 480.473 94.8298 483.034 86.5715 480.987C86.5715 480.987 79.4944 387.78 80.0851 365.242C80.6758 342.708 75.0076 304.944 81.3802 300.782C87.7528 296.617 129.617 305.219 129.617 305.219Z" fill="#213F7A"/>
<path d="M76.6695 302.298C76.5521 303.883 77.5647 305.322 79.0909 305.766C82.4624 306.746 86.3513 307.425 93.8466 308.981C100.887 310.445 110.363 311.741 122.004 311.811C140.52 311.928 147.531 305.546 147.531 305.546C148.328 305.561 147.11 301.685 146.013 283.251C145.642 277.008 145.282 269.092 145.022 259.091C144.787 250.092 144.629 239.398 144.615 226.714C144.596 211.454 120.984 195.039 120.548 195.039L120.544 195.046C120.544 197.244 117.081 201.296 111.75 201.648C105.422 202.063 97.6584 198.91 97.6584 195.266C97.6584 195.229 86.2192 213.572 82.1579 233.118C81.6406 235.596 81.2408 238.209 80.9252 240.961C79.9604 249.244 80.8922 243.332 76.6695 302.298Z" fill="#F99746"/>
<path d="M120.548 195.039C120.548 195.039 142.502 194.851 147.788 202.265C153.071 209.678 164.657 249.556 158.611 262.827C152.565 276.098 141.254 257.337 134.973 249.211C128.696 241.079 120.548 195.039 120.548 195.039Z" fill="#F99746"/>
<path d="M120.775 191.684L120.764 193.956C120.764 193.956 121.381 201.057 112.642 202.092C103.903 203.131 97.3943 200.786 97.6327 195.306C98.4215 191.064 99.1699 186.686 99.2286 183.177C99.2507 181.874 99.1626 180.487 98.9168 178.927L115.852 178.59L120.841 179.404L120.775 191.684Z" fill="#FFB27D"/>
<path d="M120.838 179.404L120.772 191.684C118.974 192.521 116.941 193.031 114.667 193.031C106.882 193.031 101.852 187.32 99.2213 183.177C99.2433 181.874 99.1553 180.487 98.9095 178.927L115.844 178.59L120.838 179.404Z" fill="#E2915A"/>
<path d="M97.6144 176.2C99.5808 186.781 113.225 186.432 119.121 185.768C120.779 185.585 121.824 185.372 121.824 185.372C123.696 184.873 124.741 181.922 125.225 178.061C126.187 170.416 124.972 159.197 123.681 156.331C121.736 152.011 118.079 147.343 104.339 150.712C90.5961 154.081 95.0939 162.647 97.6144 176.2Z" fill="#FFB27D"/>
<path d="M143.001 224.754C143.001 224.754 151.49 243.512 151.244 249.138C151.244 249.138 147.04 248.995 143.001 250.199C136.364 252.177 143.001 224.754 143.001 224.754Z" fill="#ED7D2B"/>
<path d="M127.9 146.257C127.9 146.257 121.85 145.791 114.718 142.69C108.929 140.172 101.621 142.947 99.2507 144.194C99.313 143.813 99.4671 143.291 99.8303 142.767C99.8303 142.767 98.7664 143.523 98.6086 144.576C98.4986 144.657 98.4509 144.712 98.4765 144.73C98.4765 144.73 97.2695 144.51 96.4954 144.859C96.4954 144.859 97.0384 144.782 97.2329 145.13C97.2549 145.167 97.2842 145.2 97.3209 145.226C88.2884 149.593 87.4556 163.873 90.3613 167.176C93.8576 171.151 99.0379 179.995 99.0379 179.995C99.0379 179.995 99.5808 177.988 98.9461 174.49C98.3115 170.993 101.331 170.993 105.146 169.4C108.962 167.811 105.781 163.359 109.12 160.654C112.458 157.95 124.697 159.542 124.539 157.472C129.078 155.825 127.9 146.723 127.9 146.257Z" fill="#233862"/>
<path d="M94.8482 259.895C98.4325 274.296 137.2 281.735 146.013 283.247C145.642 277.004 145.283 269.088 145.022 259.087L94.8482 259.895Z" fill="#ED7D2B"/>
<path d="M103.36 264.578C102.989 264.578 94.7418 263.344 93.2633 262.607C91.7847 261.869 85.0306 252.261 89.4551 249.799C93.8796 247.336 105.759 257.186 105.759 257.186L103.36 264.578Z" fill="#FFB27D"/>
<path d="M153.526 267.429C153.526 267.429 121.623 269.162 100.216 264.574C100.216 264.574 99.6762 258.386 106.405 255.638C106.405 255.638 139.772 248.562 147.788 250.533C155.804 252.507 153.526 267.429 153.526 267.429Z" fill="#F99746"/>
<path d="M80.2649 242.385C86.887 250.371 95.5415 256.889 105.08 258.419L105.084 258.416C105.161 258.295 107.971 254.03 107.447 247.758C107.204 244.855 106.243 241.523 103.972 237.974C103.272 236.884 102.652 235.607 102.098 234.19C96.888 220.89 97.6621 195.262 97.6621 195.262C97.6621 195.262 75.5359 197.582 68.6423 207.432C64.4159 213.466 69.8016 229.76 80.2649 242.385Z" fill="#F99746"/>
<path d="M119.124 185.768C120.783 185.585 121.828 185.372 121.828 185.372C123.699 184.873 124.745 181.922 125.229 178.061C121.722 178.927 120.111 181.639 119.443 182.792C119.139 183.313 119.077 184.476 119.124 185.768Z" fill="#E2915A"/>
<path d="M128.039 191.75C128.039 191.75 135.681 179.136 129.738 178.586C123.795 178.035 121.406 182.061 120.551 183.537C119.693 185.016 120.775 191.68 120.775 191.68L128.039 191.75Z" fill="#FFB27D"/>
<path d="M98.9132 247.336C99.148 248.936 99.6249 250.404 100.216 251.714C102.083 255.858 105.08 258.419 105.08 258.419L105.084 258.416C124.928 249.454 128.945 218.684 129.617 201.777C129.888 194.98 129.617 190.425 129.617 190.425C120.665 187.46 118.148 192.613 118.148 192.613C118.148 192.613 107.579 217.759 102.094 234.194C99.9954 240.48 98.6453 245.494 98.9132 247.336Z" fill="#F99746"/>
<path d="M80.2649 242.385C86.887 250.371 95.5415 256.889 105.08 258.419L105.084 258.416C124.928 249.454 128.945 218.684 129.617 201.777C129.617 201.777 120.225 235.849 107.443 247.758C105.132 249.912 102.71 251.344 100.216 251.714C100.216 251.714 84.0987 247.156 80.7161 242.866C80.4777 242.558 80.3272 242.407 80.2649 242.385Z" fill="#ED7D2B"/>
<path d="M907.458 426.916C907.458 426.916 897.751 415.587 906.86 408.394C906.86 408.394 913.512 404.364 918.938 404.691C918.938 404.691 911.252 417.584 913.739 418.868C916.226 420.149 921.267 403.883 921.267 403.883C921.267 403.883 936.404 402.415 941.277 404.757C941.277 404.757 928.333 415.352 931.059 415.983C933.785 416.615 947.763 406.214 947.763 406.214C947.763 406.214 961.854 408.614 961.102 417.209C960.35 425.804 955.497 428.461 953.361 428.234C951.226 428.006 938.745 423.239 938.474 424.99C938.202 426.74 945.716 432.454 950.977 432.722C950.977 432.722 941.042 443.681 934.442 440.517C927.838 437.354 927.277 432.341 923.16 430.462C919.044 428.582 915.533 428.586 917.232 430.502C918.93 432.421 926.378 434.282 928.733 438.447C931.088 442.613 933.198 445.42 926.367 444.393C919.536 443.365 908.434 438.363 907.946 432.638C907.458 426.916 907.458 426.916 907.458 426.916Z" fill="#C8DBF4"/>
<path d="M954.18 417.44C954.18 417.44 915.911 415.965 907.458 426.913C907.458 426.913 905.591 432.513 899.838 437.611L898.943 440.055C898.943 440.055 905.576 433.06 907.946 432.638C907.942 432.642 904.233 419.077 954.18 417.44Z" fill="#C8DBF4"/>
<path d="M899.834 437.614C899.834 437.614 891.62 443.692 891.048 454.548L892.537 454.68C892.537 454.68 895.16 443.453 899.904 439.064C904.648 434.675 899.834 437.614 899.834 437.614Z" fill="#C8DBF4"/>
<path d="M873.522 412.669C873.522 412.669 888.96 404.019 881.759 392.283C881.759 392.283 875.995 385.075 869.817 383.221C869.817 383.221 873.111 400.727 869.817 401.138C866.522 401.549 867.553 381.368 867.553 381.368C867.553 381.368 851.289 373.544 844.909 374.16C844.909 374.16 854.999 391.251 851.704 390.84C848.409 390.429 837.088 373.129 837.088 373.129C837.088 373.129 820.413 370.039 817.735 379.926C815.06 389.809 819.382 394.753 821.851 395.369C824.32 395.986 840.173 395.78 839.762 397.839C839.351 399.898 828.646 403.194 822.677 401.34C822.677 401.34 829.266 417.609 837.909 416.787C846.557 415.961 849.231 410.611 854.584 410.196C859.937 409.785 863.848 411.227 861.173 412.666C858.499 414.108 849.44 413.139 845.115 416.813C840.793 420.49 837.293 422.755 845.32 424.402C853.348 426.05 867.758 425.019 870.642 418.842C873.526 412.666 873.522 412.669 873.522 412.669Z" fill="#C8DBF4"/>
<path d="M825.348 383.016C825.348 383.016 868.58 397.021 873.522 412.669C873.522 412.669 873.317 419.672 877.638 427.702V430.792C877.638 430.792 873.107 420.288 870.638 418.846C870.638 418.846 880.313 405.256 825.348 383.016Z" fill="#C8DBF4"/>
<path d="M877.638 427.702C877.638 427.702 884.305 437.831 880.504 450.159L878.787 449.7C878.787 449.7 880.452 436.121 876.963 429.291C873.478 422.461 877.638 427.702 877.638 427.702Z" fill="#C8DBF4"/>
<path d="M898.084 400.742C898.084 400.742 877.73 389.339 887.229 373.867C887.229 373.867 894.827 364.365 902.967 361.921C902.967 361.921 898.627 384.994 902.967 385.537C907.311 386.08 905.954 359.476 905.954 359.476C905.954 359.476 927.394 349.16 935.806 349.975C935.806 349.975 922.511 372.505 926.851 371.962C931.195 371.419 946.119 348.617 946.119 348.617C946.119 348.617 968.102 344.547 971.628 357.575C975.157 370.604 969.456 377.122 966.202 377.937C962.948 378.751 942.051 378.48 942.594 381.196C943.137 383.911 957.247 388.253 965.116 385.812C965.116 385.812 956.432 407.256 945.033 406.174C933.634 405.087 930.109 398.03 923.054 397.487C915.999 396.943 910.841 398.845 914.37 400.746C917.899 402.647 929.837 401.37 935.539 406.214C941.236 411.062 945.851 414.046 935.267 416.218C924.683 418.391 905.69 417.033 901.889 408.889C898.084 400.742 898.084 400.742 898.084 400.742Z" fill="#D4E4F8"/>
<path d="M961.587 361.649C961.587 361.649 904.6 380.109 898.088 400.738C898.088 400.738 898.36 409.968 892.662 420.556V424.63C892.662 424.63 898.631 410.787 901.889 408.886C901.882 408.886 889.129 390.969 961.587 361.649Z" fill="#D4E4F8"/>
<path d="M892.658 420.556C892.658 420.556 883.868 433.908 888.879 450.159L891.139 449.549C891.139 449.549 888.946 431.651 893.543 422.648C898.14 413.646 892.658 420.556 892.658 420.556Z" fill="#D4E4F8"/>
<path d="M897.398 485.401C919.418 485.401 937.267 467.547 937.267 445.52H857.53C857.53 467.543 875.379 485.401 897.398 485.401Z" fill="#739AF0"/>
<path d="M937.817 487.431H856.979C856.979 484.715 859.181 482.51 861.899 482.51H932.901C935.616 482.51 937.817 484.712 937.817 487.431Z" fill="#D4E4F8"/>
<path d="M938.173 445.52H856.22V446.742H938.173V445.52Z" fill="#1C468A"/>
<path d="M758.741 179.569C752.871 176.523 748.172 178.439 748.172 178.439C730.217 176.329 724.978 197.277 725.22 204.485C725.462 211.693 726.284 219.433 718.268 228.799C695.103 255.847 743.615 257.039 743.615 257.039C744.026 235.43 769.924 243.314 768.786 245.505C801.985 253.472 772.088 186.495 758.741 179.569Z" fill="#163560"/>
<path d="M689.475 269.661C689.475 269.661 686.317 264.853 683.774 264.757C681.232 264.662 676.517 263.345 676.895 264.288C677.273 265.231 680.194 265.326 680.476 265.892C680.758 266.457 676.139 267.304 674.819 267.4C673.498 267.495 670.387 267.4 670.482 268.061C670.578 268.721 676.088 271.455 679.977 271.077C683.866 270.699 688.672 272.208 688.672 272.208L689.475 269.661Z" fill="#FFB27D"/>
<path d="M735.144 271.217C735.144 271.217 733.427 274.615 730.316 278.524C726.563 283.225 720.777 288.657 713.513 289.728C710.042 290.238 706.649 289.493 703.53 288.106C703.523 288.102 703.519 288.102 703.519 288.102C694.696 284.186 688.063 275.177 688.063 275.177C686.507 270.934 689.054 268.057 689.054 268.057C689.054 268.057 706.869 272.064 708.564 271.217C710.259 270.369 720.157 241.846 722.513 238.264C724.872 234.678 732.903 232.817 732.903 232.817L735.144 271.217Z" fill="#F9DDBF"/>
<path d="M730.316 278.524C726.563 283.225 720.777 288.657 713.513 289.728C710.042 290.238 706.649 289.493 703.53 288.106C703.875 288.15 712.688 289.24 716.199 282.953C719.779 276.542 723.654 266.358 728.977 269.752C731.274 271.22 731.171 274.861 730.316 278.524Z" fill="#F2CCAA"/>
<path d="M801.607 463.58C801.607 463.58 807.044 468.542 805.984 472.068C804.924 475.595 800.019 477.944 799.355 482.256C798.691 486.565 796.042 488.917 793.653 488.917C791.265 488.917 782.276 488.917 782.276 488.917C782.276 488.917 780.519 485.886 784.764 484.972C789.009 484.058 790.605 478.994 790.34 474.292C790.076 469.591 790.737 463.323 790.737 463.323L799.751 461.235L801.607 463.58Z" fill="#233862"/>
<path d="M755.597 465.69C755.597 465.69 757.553 486.712 755.168 487.89L724.626 487.827C724.626 487.827 724.626 484.3 729.531 483.519C734.436 482.737 743.054 479.863 744.514 473.463C745.97 467.059 755.597 465.69 755.597 465.69Z" fill="#233862"/>
<path d="M777.364 314.868C771.08 300.768 767.235 296.72 767.968 292.345C768.515 289.086 766.303 231.617 766.303 231.617C765.558 231.386 764.061 231.181 763.247 230.997C760.668 230.425 758.536 228.612 757.648 226.127C756.577 223.129 755.729 218.706 755.748 213.161L754.944 213.319L741.407 216.001C741.407 216.001 741.715 220.262 741.722 224.277C741.722 224.31 741.722 224.343 741.722 224.376C741.737 227.863 739.451 230.942 736.102 231.907C734.392 232.403 732.902 232.825 732.902 232.825C732.902 232.825 727.931 247.02 726.981 261.605C726.031 276.19 736.021 282.524 726.904 311.667C717.604 341.427 780.835 322.655 777.364 314.868Z" fill="#FFB27D"/>
<path d="M741.403 215.998C741.403 215.998 741.711 220.259 741.718 224.274C749.294 224.061 753.297 217.147 754.937 213.315L741.403 215.998Z" fill="#E8945B"/>
<path d="M738.872 219.796C738.872 219.796 756.793 220.094 756.808 208.926C756.819 197.758 759.141 190.275 747.699 189.614C736.256 188.954 734.029 193.211 733.119 196.94C732.209 200.665 734.212 219.433 738.872 219.796Z" fill="#FFB27D"/>
<path d="M739.536 189.339C739.536 189.339 744.444 202.441 751.973 204.379C759.505 206.316 762.77 204.298 762.77 204.298C762.77 204.298 756.991 199.707 755.795 191.695C755.795 191.695 743.237 183.104 739.536 189.339Z" fill="#163560"/>
<path d="M740.754 190.403C740.754 190.403 737.114 191.765 735.617 194.418C734.154 197.013 732.906 200.452 733.196 204.672C733.196 204.672 729.498 195.765 733.655 190.73C738.057 185.386 740.754 190.403 740.754 190.403Z" fill="#163560"/>
<path d="M742.771 212.871C742.771 212.871 741.535 214.5 739.062 214.383C737.07 214.288 736.3 212.559 736.3 212.559C736.3 212.559 739.961 211.675 742.771 212.871Z" fill="#EBF3FA"/>
<path d="M779.092 257.039C779.092 257.039 779.547 263.458 779.092 271.162C778.788 276.267 773.626 283.107 772.896 284.799C771.058 289.042 768.985 289.732 768.985 289.732L752.949 293.662L747.31 295.042L729.531 289.732C729.531 289.732 721.43 267.121 724.684 254.39C727.935 241.662 732.906 232.821 732.906 232.821C732.906 232.821 747.416 247.031 766.307 231.617L779.092 257.039Z" fill="#F9DDBF"/>
<path d="M774.4 273.243C774.099 278.347 773.629 283.104 772.895 284.796C771.057 289.038 768.985 289.728 768.985 289.728L752.948 293.659L745.985 291.611C745.985 291.611 769.234 288.088 766.659 268.075L774.4 273.243Z" fill="#F2CCAA"/>
<path d="M730.661 293.16C730.661 293.16 721.856 320.578 721.291 329.911C720.726 339.244 738.123 462.515 738.824 466.817C739.484 470.872 744.518 473.456 744.518 473.456C744.518 473.456 746.833 474.821 750.135 473.889C754.717 472.593 756.166 471.044 756.166 471.044C756.166 471.044 763.019 383.13 758.778 351.722C754.537 320.314 754.486 293.16 754.486 293.16H730.661Z" fill="#ED7D2B"/>
<path d="M767.965 292.345C767.965 292.345 781.396 310.372 782.647 322.56C783.898 334.748 784.61 377.555 787.277 389.435C789.944 401.314 799.747 424.179 799.747 461.235C799.747 461.235 798.727 463.36 795.583 464.49C794.578 464.853 793.228 465.202 791.922 465.503C789.328 466.097 786.664 464.831 785.483 462.446C778.857 449.098 757.747 406.052 756.665 397.12C755.898 390.796 749.236 348.947 734.696 324.388C731.207 318.494 736.839 295.046 736.839 295.046L767.965 292.345Z" fill="#F99746"/>
<path d="M742.375 213.168C742.375 213.168 742.067 214.486 738.791 214.28C738.791 214.28 736.043 214.111 736.127 212.665C736.127 212.665 738.791 211.638 742.375 213.168Z" fill="white"/>
<path d="M729.252 288.928C729.252 288.928 732.789 291.725 739.811 291.868C748.198 292.037 768.985 289.728 768.985 289.728C768.985 289.728 769.909 292.308 769.873 295.035C769.873 295.035 744.488 301.439 729.78 295.971C729.777 295.971 727.88 292.4 729.252 288.928Z" fill="#233862"/>
<path d="M737.797 299.098C735.687 299.098 733.97 297.153 733.97 294.763C733.97 292.374 735.687 290.429 737.797 290.429C739.906 290.429 741.623 292.374 741.623 294.763C741.623 297.153 739.91 299.098 737.797 299.098ZM737.797 291.699C736.384 291.699 735.24 293.075 735.24 294.763C735.24 296.452 736.388 297.828 737.797 297.828C739.205 297.828 740.354 296.452 740.354 294.763C740.354 293.075 739.209 291.699 737.797 291.699Z" fill="white"/>
<path d="M765.349 258.276L739.339 280.931L770.339 316.546L796.349 293.891L765.349 258.276Z" fill="#B5453C"/>
<path d="M763.118 293.971C763.118 293.971 753.59 295.086 753.62 297.347C753.649 299.608 755.993 304.258 757.171 304.463C758.349 304.669 764.927 298.176 764.927 298.176L763.118 293.971Z" fill="#FFB27D"/>
<path d="M766.303 231.614C766.303 231.614 779.026 232.505 783.902 244.367C788.778 256.228 798.03 276.138 798.03 279.489C798.03 282.84 792.861 293.163 765.103 299.101C765.103 299.101 762.231 296.081 762.407 293.692C762.407 293.692 779.734 278.803 779.686 277.063C779.598 273.771 776.847 269.426 761.633 254.203C757.498 250.059 766.303 231.614 766.303 231.614Z" fill="#F9DDBF"/>
<path d="M867.854 160.61L875.441 187.137C875.551 187.526 875.591 187.922 875.566 188.308C875.474 189.702 874.52 190.954 873.1 191.361L827.046 204.544C825.619 204.951 824.144 204.386 823.334 203.241C823.114 202.933 822.941 202.584 822.831 202.199L815.248 175.683C814.727 173.87 815.776 171.98 817.585 171.462L863.639 158.28C865.444 157.762 867.329 158.801 867.854 160.61Z" fill="#CDE0FB"/>
<path d="M875.565 188.308C875.474 189.702 874.52 190.954 873.1 191.361L827.046 204.544C825.619 204.951 824.144 204.386 823.334 203.241L846.788 181.863L875.565 188.308Z" fill="#BED7FB"/>
<path d="M867.854 160.61L847.235 186.22L815.633 177.037L815.244 175.679C814.723 173.866 815.772 171.976 817.581 171.459L863.635 158.276C865.444 157.762 867.329 158.801 867.854 160.61Z" fill="#DFEBFD"/>
<path d="M502.666 488.187H502.534C501.76 488.187 501.14 487.549 501.155 486.778L503.246 396.191L509.402 395.472L504.156 486.785C504.108 487.571 503.455 488.187 502.666 488.187Z" fill="#B0D4FF"/>
<path d="M466.804 488.187H466.672C465.898 488.187 465.278 487.549 465.293 486.778L467.384 396.191L473.54 395.472L468.29 486.785C468.243 487.571 467.593 488.187 466.804 488.187Z" fill="#95C0F4"/>
<path d="M565.769 488.187H565.901C566.675 488.187 567.295 487.549 567.28 486.778L565.189 396.191L559.033 395.472L564.279 486.785C564.327 487.571 564.98 488.187 565.769 488.187Z" fill="#B0D4FF"/>
<path d="M462.725 390.569V328.494C462.725 317.573 471.577 308.717 482.496 308.717H527.203C538.121 308.717 546.974 317.573 546.974 328.494V392.943L462.725 390.569Z" fill="#B0D4FF"/>
<path d="M554.986 400.371H468.664C465.385 400.371 462.728 397.714 462.728 394.433V390.573H554.986V400.371Z" fill="#95C0F4"/>
<path d="M565.329 400.371H500.021C497.596 400.371 495.633 398.404 495.633 395.982V394.965C495.633 392.54 497.6 390.576 500.021 390.576H565.329C567.754 390.576 569.716 392.543 569.716 394.965V395.982C569.72 398.404 567.754 400.371 565.329 400.371Z" fill="#B0D4FF"/>
<path d="M562.794 375.103C556.388 386.253 548.331 390.558 548.331 390.558H514.817C514.821 390.558 567.68 366.596 562.794 375.103Z" fill="#233862"/>
<path d="M537.054 461.381C536.181 462.383 536.07 463.503 536.5 464.695C536.5 464.699 536.503 464.706 536.507 464.71C537.307 466.92 539.948 469.386 543.015 471.852C543.408 472.168 543.756 472.458 544.061 472.722C544.142 472.791 544.222 472.861 544.296 472.931C544.358 472.986 544.417 473.041 544.476 473.092C547.337 475.731 546.259 476.333 551.398 481.688C557.257 487.787 561.293 487.897 562.441 487.339C563.414 486.866 561.44 483.633 559.253 479.996C559.147 479.82 559.044 479.643 558.934 479.467C558.644 478.983 558.354 478.495 558.065 478.007C555.504 473.632 556.16 471.577 556.769 465.066C557.261 459.774 564.998 435.504 564.998 435.504L553.768 433.57C553.768 433.57 550.386 452.896 546.662 455.873C544.67 457.458 542.439 457.48 540.524 458.655C540.389 458.735 540.256 458.82 540.124 458.908C539.038 459.631 537.93 460.376 537.054 461.381Z" fill="#FFB27D"/>
<path d="M537.054 461.381C536.181 462.383 536.07 463.503 536.5 464.695C536.5 464.699 536.503 464.706 536.507 464.71C537.487 466.916 540.058 469.371 543.026 471.83C543.415 472.153 543.756 472.447 544.061 472.722C544.142 472.791 544.222 472.861 544.296 472.931C544.358 472.986 544.417 473.041 544.476 473.092C547.337 475.731 546.259 476.333 551.398 481.688C557.257 487.787 561.293 487.897 562.441 487.339C563.414 486.866 561.44 483.633 559.253 479.996C558.112 479.577 552.815 477.423 548.808 472.296C545.279 467.793 542.927 462.005 540.524 458.655C540.389 458.735 540.256 458.82 540.124 458.908C539.038 459.631 537.931 460.376 537.054 461.381Z" fill="#233862"/>
<path d="M627.602 454.364C628.295 457.833 633.237 457.253 638.755 455.906C644.277 454.555 642.963 456.159 650.818 455.289C658.673 454.419 661.054 451.491 661.292 450.32C661.505 449.281 657.623 448.918 653.459 448.437C652.935 448.379 652.41 448.313 651.886 448.25C647.186 447.659 643.741 444.624 639.47 442.132C635.427 439.773 629.389 430.153 629.389 430.153L618.614 431.009C618.614 431.009 624.267 439.6 626.454 443.332C627.741 445.531 627.672 448.434 627.51 450.676C627.433 451.898 627.356 453.142 627.602 454.364Z" fill="#FFB27D"/>
<path d="M638.755 455.906C644.277 454.555 642.963 456.159 650.818 455.289C658.673 454.419 661.054 451.491 661.292 450.32C661.505 449.282 657.623 448.918 653.459 448.437L653.419 448.518C653.419 448.518 648.708 451.862 642.167 452.016C636.836 452.144 631.19 450.617 627.51 450.676C627.426 451.895 627.349 453.142 627.595 454.364C628.295 457.833 633.234 457.253 638.755 455.906Z" fill="#233862"/>
<path d="M586.31 385.449L576.24 412.56L563.091 447.96C563.091 447.96 559.521 448.305 556.105 447.322C552.958 446.412 549.348 444.033 549.348 444.033C549.348 444.033 552.998 406.023 559.811 384.205C561.557 378.605 563.513 374.076 565.67 371.525C576.229 359.04 586.31 385.449 586.31 385.449Z" fill="#233862"/>
<path d="M576.071 342.393C569.471 340.264 550.654 342.998 531.749 346.698L527.79 340.165L486.957 336.976C486.957 336.976 473.481 366.868 480.859 385.915C481.945 388.715 484.099 390.51 487.771 390.569C487.771 390.569 488.366 390.569 488.369 390.569C488.369 390.569 512.675 390.554 520.566 390.554C540.873 390.554 563.542 376.59 566.477 376.003C571.276 375.041 573.198 384.645 577.997 394.731C582.796 404.816 623.119 439.387 623.119 439.387C623.119 439.387 629.315 439.45 631.876 438.488C634.628 437.457 635.637 436.114 635.637 436.114C635.637 436.114 590.951 347.193 576.071 342.393Z" fill="#2B478B"/>
<path d="M526.183 221.224C520.952 218.475 512.994 218.104 511.699 217.932C496.224 215.851 486.913 238.345 486.366 245.16C485.357 257.722 478.713 259.638 469.362 267.503C450.614 283.276 456.11 301.608 466.364 308.42C472.517 312.504 483.358 308.42 483.358 308.42C483.512 308.526 513.009 291.923 527.552 283.915C549.348 280.814 539.512 228.226 526.183 221.224Z" fill="#233862"/>
<path d="M515.36 277.096C515.423 277.137 508.206 279.603 503.378 277.463C498.836 275.456 495.399 267.983 495.465 267.98C497.53 267.884 499.797 266.079 501.544 254.225L502.424 254.54L517.213 259.862C517.213 259.862 516.142 264.607 515.448 269.129C514.869 272.923 514.553 276.56 515.36 277.096Z" fill="#FFB27D"/>
<path d="M517.217 259.865C517.217 259.865 516.145 264.611 515.452 269.132C506.959 267.602 503.624 259.135 502.428 254.544L517.217 259.865Z" fill="#ED975D"/>
<path d="M519.418 264.574C519.418 264.574 499.185 261.858 501.071 249.277C502.956 236.7 501.613 227.878 514.612 229.078C527.61 230.282 529.397 235.456 529.786 239.809C530.175 244.161 524.73 264.959 519.418 264.574Z" fill="#FFB27D"/>
<path d="M529.048 232.917C529.048 232.917 516.098 244.081 507.285 244.984C498.477 245.883 495.138 243.053 495.138 243.053C495.138 243.053 500.333 238.741 503.455 231.779C504.376 229.727 506.32 228.318 508.562 228.127C514.858 227.584 526.781 227.335 529.048 232.917Z" fill="#233862"/>
<path d="M520.951 231.915C520.951 231.915 525.284 236.106 526.649 239.214C527.966 242.213 528.362 249.388 527.313 252.239C527.313 252.239 534.064 239.108 530.241 232.726C526.19 225.962 520.951 231.915 520.951 231.915Z" fill="#233862"/>
<path d="M532.398 306.915C531.785 347.887 532.229 339.325 527.75 343.215C526.671 344.151 523.633 344.709 519.642 344.973C507.084 345.806 485.005 343.736 484.165 341.417C481.267 333.383 483.314 330.887 480.896 318.589C480.643 317.283 480.331 315.866 479.968 314.325C477.954 305.876 475.991 303.003 483.141 289.431C489.624 277.137 496.36 267.161 496.965 267.521C514.069 277.68 515.448 269.14 515.448 269.14C515.448 269.14 532.699 286.928 532.398 306.915Z" fill="white"/>
<path d="M576.24 412.56L563.091 447.96C563.091 447.96 559.521 448.305 556.105 447.322C552.958 446.412 549.348 444.034 549.348 444.034C549.348 444.034 552.998 406.023 559.811 384.205L576.24 412.56Z" fill="#2B478B"/>
<path d="M515.452 269.132C515.452 269.132 533.055 272.116 535.12 279.698C537.186 287.28 549.351 331.845 549.351 331.845C549.351 331.845 540.403 333.453 536.269 329.316C532.134 325.18 521.887 290.954 521.887 290.954L515.452 269.132Z" fill="white"/>
<path d="M519.642 344.969C507.084 345.802 485.005 343.732 484.165 341.413C481.267 333.379 483.314 330.884 480.896 318.585L486.953 301.524C486.953 301.524 485.952 320.523 491.554 325.522C497.149 330.52 514.487 335.17 517.213 339.347C518.526 341.347 519.392 343.354 519.642 344.969Z" fill="#EBF3FF"/>
<path d="M505.253 336.979C505.253 336.979 517.642 334.22 519.642 335.321C521.641 336.422 526.528 340.426 527.141 341.82C527.753 343.215 522.69 340.763 521.043 340.319C519.976 340.033 517.169 341.009 515.779 341.472C509.931 343.42 506.346 342.418 506.346 342.418L505.253 336.979Z" fill="#FFB27D"/>
<path d="M496.954 267.503C496.954 267.503 480.316 268.527 474.556 276.564C466.448 287.875 450.365 336.084 459.584 342.51C469.963 349.751 506.827 344.404 506.827 344.404C506.827 344.404 508.052 338.668 506.346 335.893C504.64 333.119 476.904 328.638 475.624 327.357C474.344 326.076 491.627 302.386 491.627 298.544C491.627 294.701 496.954 267.503 496.954 267.503Z" fill="white"/>
<path d="M520.243 338.767C520.243 338.767 522.841 342.117 523.692 342.518C524.543 342.918 525.093 342.818 525.093 342.818L523.343 339.67L520.243 338.767Z" fill="#FFB27D"/>
<path d="M519.642 335.317L527.188 338.983C527.188 338.983 526.865 339.508 525.937 339.468C525.009 339.424 522.665 338.569 522.665 338.569L519.642 335.317Z" fill="#FFB27D"/>
<path d="M523.688 347.648H583.397L601.36 302.97H541.742L523.688 347.648Z" fill="#F99746"/>
<path d="M584.098 345.909H505.253V347.648H583.397L584.098 345.909Z" fill="#ED7D2B"/>
<path d="M568.326 325.309C568.777 323.738 567.867 322.465 566.297 322.465C564.727 322.465 563.091 323.738 562.639 325.309C562.188 326.88 563.098 328.153 564.668 328.153C566.239 328.153 567.875 326.88 568.326 325.309Z" fill="white"/>
<path d="M247.553 398.246H247.362C245.142 398.246 243.345 396.448 243.345 394.228V309.377C243.345 307.157 245.142 305.359 247.362 305.359H247.553C249.772 305.359 251.57 307.157 251.57 309.377V394.228C251.574 396.444 249.772 398.246 247.553 398.246Z" fill="#B0D4FF"/>
<path d="M247.424 488.187H247.292C246.518 488.187 245.898 487.548 245.913 486.778L248.004 396.191L254.16 395.472L248.91 486.785C248.866 487.57 248.213 488.187 247.424 488.187Z" fill="#95C0F4"/>
<path d="M346.389 488.187H346.521C347.295 488.187 347.915 487.548 347.9 486.778L345.809 396.191L339.653 395.472L344.903 486.785C344.947 487.57 345.6 488.187 346.389 488.187Z" fill="#B0D4FF"/>
<path d="M345.949 390.569H335.603H280.641H243.345V394.43C243.345 397.711 246.001 400.368 249.281 400.368H280.641H335.603H345.949C348.374 400.368 350.336 398.4 350.336 395.978V394.962C350.34 392.536 348.374 390.569 345.949 390.569Z" fill="#B0D4FF"/>
<path d="M397.315 468.82C397.315 468.82 395.803 487.603 399.164 487.853C399.611 487.886 416.216 487.886 416.216 487.886L437.414 487.765C437.414 487.765 437.275 482.656 431.078 481.574C424.882 480.495 412.617 475.276 408.864 467.085C404.92 458.467 397.315 468.82 397.315 468.82Z" fill="#163560"/>
<path d="M269.789 365.921C269.789 365.921 270.493 384.381 273.747 390.569H348.718C348.718 390.569 366.732 392.433 368.375 393.648C370.448 395.182 361.159 410.39 395.975 469.833L413.028 469.4C413.028 469.4 395.194 373 392.028 370.56C387.288 366.912 331.824 354.206 322.329 353.931C312.834 353.652 269.789 365.921 269.789 365.921Z" fill="#1C468A"/>
<path d="M311.822 256.544C317.607 260.13 317.934 267.268 317.934 267.268C303.824 270.919 283.29 255.248 283.29 255.248C283.29 255.248 292.374 249.145 295.738 235.728C295.907 235.052 296.064 234.355 296.2 233.647C296.64 231.386 296.916 228.942 296.963 226.303L303.446 232.113L314.225 241.772C314.225 241.772 313.979 245.78 312.633 252.676C312.398 253.88 312.13 255.171 311.822 256.544Z" fill="#FFB27D"/>
<path d="M319.794 330.649C319.313 333.797 320.289 336.333 320.755 338.675C320.939 339.57 321.045 340.436 320.968 341.299C320.198 350.011 323.301 351.116 322.329 353.927C322.329 353.927 319.012 355.869 312.937 358.17C310.296 359.168 307.129 360.24 303.486 361.245C303.296 361.297 303.105 361.348 302.91 361.403C288.804 365.216 273.975 366.031 269.785 365.921C261.784 365.708 260.166 345.413 263.137 319.855C267.764 280.039 274.015 260.735 290.495 246.785C291.534 245.908 290.833 248.896 296.373 251.567C301.491 254.03 307.665 254.61 312.456 253.546L316.224 257.41C323.708 269.238 324.494 283.276 323.859 294.98C323.055 309.777 321.184 321.584 319.794 330.649Z" fill="#B0D4FF"/>
<path d="M314.225 241.772C314.225 241.772 314.797 241.167 313.451 248.063C301.513 244.605 297.624 238.524 296.028 234.487C295.573 233.346 300.467 232.74 303.446 232.109L314.225 241.772Z" fill="#ED975D"/>
<path d="M319.776 241.805C319.776 241.805 296.74 245.105 294.905 230.722C293.071 216.339 288.863 207.08 303.494 204.364C318.125 201.648 321.687 206.771 323.466 211.425C325.246 216.079 325.719 240.576 319.776 241.805Z" fill="#FFB27D"/>
<path d="M406.458 348.419L408.219 348.97L422.648 302.823L420.886 302.272L406.458 348.419Z" fill="#1C468A"/>
<path d="M357.544 348.439L408.263 348.967L408.294 345.932L357.575 345.404L357.544 348.439Z" fill="#1C468A"/>
<path d="M287.56 204.658C287.377 204.441 286.948 204.265 285.99 204.206C285.99 204.206 286.761 203.733 287.784 203.718C287.993 202.389 288.723 200.037 291.016 199.483C291.016 199.483 289.78 200.129 289.607 201.545C292.282 198.841 297.983 196.899 313.719 198.268C334.454 200.07 327.513 213.304 324.813 214.867C322.113 216.431 315.388 212.034 310.38 212.39C305.372 212.746 304.363 219.976 302.657 220.956C300.951 221.936 301.634 220.185 299.344 219.128C297.055 218.071 296.806 221.877 297.451 224.358C298.097 226.839 294.913 230.08 294.913 230.08C294.913 230.08 294.913 230.08 291.75 226.619C288.588 223.158 285.697 208.577 287.171 205.487C287.296 205.212 287.425 204.933 287.56 204.658Z" fill="#2C3A64"/>
<path d="M322.329 353.927C322.329 353.927 319.012 355.869 312.937 358.17C286.654 338.987 286.797 293.578 286.654 292.804L319.665 321.881L320.755 338.671C320.938 339.567 321.045 340.433 320.968 341.295C320.197 350.012 323.301 351.116 322.329 353.927Z" fill="#91B8EF"/>
<path d="M369.913 332.568C369.913 332.568 372.026 332.913 374.257 331.863C376.487 330.817 384.181 327.511 385.626 327.962C387.072 328.414 391.789 331.078 392.901 331.584C394.013 332.091 395.976 334.689 395.976 334.689C395.161 335.511 392.296 333.625 391.015 333.662C389.735 333.698 380.281 338.866 377.47 338.976C374.66 339.09 370.28 338.513 370.28 338.513L369.913 332.568Z" fill="#FFB27D"/>
<path d="M387.053 332.979C387.079 333.133 390.509 336.957 393.125 335.746L390.26 332.913L387.053 332.979Z" fill="#FFB27D"/>
<path d="M374.257 331.863C374.257 331.863 377.335 329.012 378.355 327.643C378.355 327.643 378.967 327.925 378.993 328.443C379.033 329.309 378.186 330.902 378.186 330.902L374.257 331.863Z" fill="#FFB27D"/>
<path d="M313.708 264.112C296.787 253.806 276.818 271.811 285.216 289.761C294.953 310.574 311.158 335.955 324.035 337.456C333.214 338.524 359.446 341.89 370.555 339.816C370.555 339.816 375.937 340.081 373.017 331.412C373.017 331.412 337.118 321.404 331.156 313.642C327.961 309.484 322.516 301.061 314.096 264.357C314.067 264.203 313.84 264.192 313.708 264.112Z" fill="#B0D4FF"/>
<path d="M768.614 488.187H768.798C769.865 488.187 770.724 487.306 770.702 486.238L767.814 361.095L759.314 360.104L766.563 486.249C766.622 487.336 767.521 488.187 768.614 488.187Z" fill="#739AF0"/>
<path d="M350.589 488.187H350.41C349.342 488.187 348.484 487.306 348.506 486.238L351.393 361.095L359.893 360.104L352.644 486.249C352.582 487.336 351.683 488.187 350.589 488.187Z" fill="#739AF0"/>
<path d="M776.021 363.396H342.1C338.941 363.396 336.384 360.834 336.384 357.678V354.016C336.384 350.856 338.945 348.298 342.1 348.298H776.018C779.176 348.298 781.734 350.859 781.734 354.016V357.678C781.737 360.834 779.176 363.396 776.021 363.396Z" fill="#739AF0"/>
<path d="M704.536 43.4344C704.536 53.916 708.248 63.5277 714.427 71.0328C719.772 77.5214 722.74 85.6431 722.74 94.0474V106.169C722.74 113.876 729.043 120.181 736.747 120.181H759.163C766.868 120.181 773.171 113.876 773.171 106.169V94.0254C773.171 85.6027 776.183 77.4884 781.524 70.9778C787.728 63.4176 791.434 53.7288 791.371 43.1702C791.232 19.2161 771.901 0 747.955 0C745.295 0 742.691 0.242221 740.159 0.700971C739.598 0.803731 739.044 0.913836 738.49 1.03862C719.06 5.35821 704.536 22.6989 704.536 43.4344Z" fill="#F9DDBF"/>
<path d="M759.079 120.181L759.031 120.556L758.415 125.279L758.254 126.523V126.534L758.088 127.786L757.476 132.505L757.314 133.749L757.311 133.76L757.149 135.016L757.057 135.706C756.746 138.102 754.009 139.93 750.733 139.93H743.355C742.573 139.93 741.828 139.827 741.135 139.636H741.131C740.508 139.464 739.932 139.221 739.414 138.92L739.374 138.898C738.956 138.653 738.578 138.366 738.259 138.047C737.598 137.394 737.162 136.612 737.037 135.75L736.777 133.918L736.612 132.766V132.762L736.608 132.737V132.733L736.446 131.606L735.819 127.228L735.654 126.079L735.65 126.053L735.489 124.919L734.81 120.178H759.079V120.181Z" fill="#95C0F4"/>
<path d="M756.151 120.181H756.1H751.984C745.255 122.127 738.582 124.05 735.493 124.923L735.654 126.057L735.658 126.083L735.823 127.232C738.328 126.538 744.338 124.817 759.031 120.556L759.079 120.181H756.151Z" fill="#739AF0"/>
<path d="M736.608 132.737L736.612 132.762V132.766L736.777 133.918C739.671 133.104 745.648 131.39 758.088 127.782L758.254 126.531V126.52L758.415 125.275C750.553 127.551 741.036 130.303 736.446 131.606L736.608 132.737Z" fill="#739AF0"/>
<path d="M739.378 138.899L739.418 138.921C739.935 139.221 740.511 139.464 741.135 139.636H741.139C744.551 138.656 749.617 137.196 757.149 135.012L757.311 133.757L757.314 133.746L757.476 132.502C750.747 134.45 743.028 136.682 738.263 138.043C738.585 138.366 738.959 138.653 739.378 138.899Z" fill="#739AF0"/>
<path d="M731.758 64.4836L729.823 64.8115L739.232 120.379L741.167 120.051L731.758 64.4836Z" fill="white"/>
<path d="M763.933 65.2963L753.928 119.987L755.859 120.34L765.864 65.6497L763.933 65.2963Z" fill="white"/>
<path d="M753.132 74.6955C752.879 74.6955 752.6 74.6625 752.284 74.5928C751.76 74.4717 751.426 74.1083 751.323 73.5395C751.099 72.3137 752.061 70.0603 753.414 68.1519C752.71 66.9188 751.767 65.8986 750.78 65.6013C749.324 65.1572 747.086 66.5041 745.527 68.2253C745.813 68.629 746.07 69.0511 746.293 69.4731C747.089 70.9815 747.666 72.9082 746.88 73.8C746.591 74.1303 745.996 74.4313 744.819 73.9872C743.347 73.4331 742.819 72.1852 743.366 70.5668C743.634 69.7741 744.129 68.9483 744.76 68.1813C743.553 66.6069 741.942 65.4104 740.354 65.6123C739.506 65.7187 738.776 66.016 738.171 66.4344C739.187 68.3244 739.422 70.7246 738.717 72.0128C738.237 72.8899 737.397 73.1688 736.355 72.7981C735.606 72.5302 735.214 71.499 735.357 70.1704C735.504 68.8088 736.182 67.3188 737.393 66.2839C737.077 65.7921 736.7 65.3554 736.263 65.0178C733.526 62.8928 731.263 65.1719 731.167 65.271L730.742 64.8563C730.767 64.8269 733.478 62.1001 736.63 64.548C737.107 64.9187 737.521 65.3921 737.866 65.9243C738.538 65.4655 739.341 65.1425 740.28 65.0251C742.06 64.8012 743.839 66.06 745.156 67.7299C746.851 65.8875 749.265 64.526 750.949 65.0361C752.013 65.3591 753.018 66.3867 753.785 67.6528C754.5 66.7243 755.296 65.9169 756.071 65.4068C757.311 64.5847 758.118 64.7719 758.576 65.0765C759.05 65.3847 759.45 65.8031 759.78 66.2802C760.154 65.983 760.543 65.7297 760.932 65.5389C762.37 64.8232 763.687 64.8746 764.648 65.6857L764.263 66.1408C763.228 65.2636 761.897 65.7224 761.196 66.071C760.811 66.2619 760.436 66.5078 760.092 66.7867C761.049 68.5116 761.233 70.7613 760.686 71.8513C760.341 72.5376 759.725 72.7761 759.006 72.5119C757.707 72.0348 757.391 71.143 757.355 70.475C757.285 69.2015 758.165 67.7482 759.321 66.6803C759.024 66.2362 758.664 65.8509 758.25 65.5793C757.689 65.2086 756.933 65.5536 756.397 65.9096C755.623 66.4197 754.816 67.2638 754.1 68.218C754.992 69.9135 755.454 71.8917 755.117 73.1651C754.955 73.7707 754.482 74.6955 753.132 74.6955ZM753.723 68.7318C752.545 70.4493 751.719 72.3908 751.907 73.4294C751.965 73.7597 752.13 73.9432 752.416 74.0092C753.579 74.2735 754.295 73.9322 754.544 73C754.831 71.921 754.456 70.2328 753.723 68.7318ZM745.13 68.6914C744.587 69.3704 744.158 70.086 743.931 70.7576C743.479 72.0862 743.85 72.9853 745.028 73.4294C745.501 73.6092 746.132 73.7487 746.433 73.4074C746.899 72.8789 746.627 71.3742 745.765 69.7521C745.578 69.3924 745.362 69.0364 745.13 68.6914ZM737.698 66.805C736.659 67.7299 736.076 69.0364 735.948 70.2328C735.837 71.2457 736.087 72.0715 736.553 72.2366C737.309 72.5045 737.863 72.3357 738.193 71.7265C738.798 70.6255 738.578 68.5042 737.698 66.805ZM759.629 67.1867C758.598 68.1776 757.894 69.4511 757.949 70.431C757.989 71.143 758.411 71.6494 759.211 71.943C759.651 72.1045 759.948 71.9871 760.158 71.576C760.62 70.6585 760.422 68.7061 759.629 67.1867Z" fill="white"/>
<path d="M239.379 155.245H232.133V181.911H239.379V155.245Z" fill="#F9DDBF"/>
<path d="M238.472 152.606H233.369C232.87 152.606 232.463 152.198 232.463 151.699C232.463 151.2 232.87 150.793 233.369 150.793H238.472C238.971 150.793 239.379 151.2 239.379 151.699C239.379 152.198 238.971 152.606 238.472 152.606Z" fill="#F9DDBF"/>
<path d="M226.883 134.304H219.637V181.911H226.883V134.304Z" fill="#F9DDBF"/>
<path d="M225.815 132.329H220.712C220.213 132.329 219.806 131.922 219.806 131.423C219.806 130.923 220.213 130.516 220.712 130.516H225.815C226.314 130.516 226.721 130.923 226.721 131.423C226.721 131.922 226.311 132.329 225.815 132.329Z" fill="#F9DDBF"/>
<path d="M214.912 101.152H207.666V181.911H214.912V101.152Z" fill="#F9DDBF"/>
<path d="M213.844 98.9505H208.741C208.242 98.9505 207.835 98.5431 207.835 98.0439C207.835 97.5448 208.242 97.1375 208.741 97.1375H213.844C214.343 97.1375 214.75 97.5448 214.75 98.0439C214.747 98.5431 214.339 98.9505 213.844 98.9505Z" fill="#F9DDBF"/>
<path d="M202.625 115.807H195.379V181.914H202.625V115.807Z" fill="#F9DDBF"/>
<path d="M201.557 114.038H196.454C195.955 114.038 195.548 113.63 195.548 113.131C195.548 112.632 195.955 112.225 196.454 112.225H201.557C202.056 112.225 202.464 112.632 202.464 113.131C202.46 113.63 202.053 114.038 201.557 114.038Z" fill="#F9DDBF"/>
<path d="M190.654 79.1214H183.408V181.914H190.654V79.1214Z" fill="#F9DDBF"/>
<path d="M189.583 77.1506H184.479C183.98 77.1506 183.573 76.7433 183.573 76.2442C183.573 75.745 183.98 75.3376 184.479 75.3376H189.583C190.082 75.3376 190.489 75.745 190.489 76.2442C190.489 76.7433 190.082 77.1506 189.583 77.1506Z" fill="#F9DDBF"/>
<path d="M178.998 95.174H171.753V181.914H178.998V95.174Z" fill="#F9DDBF"/>
<path d="M177.927 93.3317H172.824C172.325 93.3317 171.918 92.9243 171.918 92.4252C171.918 91.926 172.325 91.5187 172.824 91.5187H177.927C178.426 91.5187 178.833 91.926 178.833 92.4252C178.833 92.9206 178.426 93.3317 177.927 93.3317Z" fill="#F9DDBF"/>
<path d="M711.572 348.294H651.863L633.901 303.615H693.518L711.572 348.294Z" fill="#2B478B"/>
<path d="M651.163 346.554H730.008V348.294H651.864L651.163 346.554Z" fill="#2B478B"/>
<path d="M666.935 325.955C666.483 324.384 667.393 323.111 668.963 323.111C670.534 323.111 672.17 324.384 672.621 325.955C673.073 327.526 672.163 328.799 670.592 328.799C669.022 328.799 667.386 327.526 666.935 325.955Z" fill="white"/>
<path d="M1031.54 488.216V488.65C1031.54 489.339 1031.01 489.908 1030.37 489.908H1.17033C0.528295 489.908 0 489.339 0 488.65V488.216C0 487.526 0.528295 486.958 1.17033 486.958H1030.37C1031.01 486.958 1031.54 487.523 1031.54 488.216Z" fill="#2E3552"/>
</svg>
