<svg width="491" height="572" viewBox="0 0 491 572" fill="none" xmlns="http://www.w3.org/2000/svg">
<path d="M-427.176 543.97C-397.229 574.224 -350.636 580.451 -313.796 559.123L-183.38 483.621C-161.812 471.134 -136.359 467.151 -112.008 472.452L242.922 549.709C315.577 565.524 379.466 499.332 361.088 427.282L312.095 235.2C303.327 200.823 313.429 164.373 338.644 139.415L460.432 18.8642C493.596 -13.9637 499.647 -65.3654 475.013 -104.998L426.166 -183.581C422.218 -189.934 417.569 -195.823 412.307 -201.139L373.911 -239.929C335.059 -279.181 271.743 -279.504 232.492 -240.651L-426.5 411.647C-463.227 448 -463.53 507.244 -427.176 543.97V543.97Z" fill="#CAF0F8" fill-opacity="0.5"/>
</svg>
